<svg width="25" height="25" viewBox="0 0 25 25" fill="none" xmlns="http://www.w3.org/2000/svg">
<path d="M12.5 0C10.0277 0 7.61099 0.733112 5.55538 2.10663C3.49976 3.48015 1.89761 5.43238 0.951511 7.71645C0.00541605 10.0005 -0.242126 12.5139 0.24019 14.9386C0.722505 17.3634 1.91301 19.5907 3.66117 21.3388C5.40933 23.087 7.63661 24.2775 10.0614 24.7598C12.4861 25.2421 14.9995 24.9946 17.2835 24.0485C19.5676 23.1024 21.5199 21.5002 22.8934 19.4446C24.2669 17.389 25 14.9723 25 12.5C25 10.8585 24.6767 9.23302 24.0485 7.71645C23.4203 6.19989 22.4996 4.8219 21.3388 3.66116C20.1781 2.50043 18.8001 1.57969 17.2835 0.951506C15.767 0.323322 14.1415 0 12.5 0V0ZM12.5 22.5C10.5222 22.5 8.58879 21.9135 6.9443 20.8147C5.29981 19.7159 4.01809 18.1541 3.26121 16.3268C2.50433 14.4996 2.3063 12.4889 2.69215 10.5491C3.078 8.60928 4.03041 6.82746 5.42894 5.42893C6.82746 4.03041 8.60929 3.078 10.5491 2.69215C12.4889 2.30629 14.4996 2.50433 16.3268 3.2612C18.1541 4.01808 19.7159 5.2998 20.8147 6.9443C21.9135 8.58879 22.5 10.5222 22.5 12.5C22.5 15.1522 21.4464 17.6957 19.5711 19.5711C17.6957 21.4464 15.1522 22.5 12.5 22.5V22.5Z" fill="#DC772C"/>
<path d="M15.8875 9.11242C15.7713 8.99526 15.633 8.90227 15.4807 8.83881C15.3284 8.77535 15.165 8.74268 15 8.74268C14.835 8.74268 14.6716 8.77535 14.5193 8.83881C14.3669 8.90227 14.2287 8.99526 14.1125 9.11242L12.5 10.7374L10.8875 9.11242C10.6521 8.87704 10.3329 8.74481 9.99998 8.74481C9.66711 8.74481 9.34786 8.87704 9.11248 9.11242C8.87711 9.3478 8.74487 9.66705 8.74487 9.99992C8.74487 10.3328 8.87711 10.652 9.11248 10.8874L10.7375 12.4999L9.11248 14.1124C8.99532 14.2286 8.90233 14.3669 8.83887 14.5192C8.77541 14.6715 8.74274 14.8349 8.74274 14.9999C8.74274 15.1649 8.77541 15.3283 8.83887 15.4806C8.90233 15.633 8.99532 15.7712 9.11248 15.8874C9.22869 16.0046 9.36694 16.0976 9.51926 16.161C9.67159 16.2245 9.83497 16.2572 9.99998 16.2572C10.165 16.2572 10.3284 16.2245 10.4807 16.161C10.633 16.0976 10.7713 16.0046 10.8875 15.8874L12.5 14.2624L14.1125 15.8874C14.2287 16.0046 14.3669 16.0976 14.5193 16.161C14.6716 16.2245 14.835 16.2572 15 16.2572C15.165 16.2572 15.3284 16.2245 15.4807 16.161C15.633 16.0976 15.7713 16.0046 15.8875 15.8874C16.0046 15.7712 16.0976 15.633 16.1611 15.4806C16.2246 15.3283 16.2572 15.1649 16.2572 14.9999C16.2572 14.8349 16.2246 14.6715 16.1611 14.5192C16.0976 14.3669 16.0046 14.2286 15.8875 14.1124L14.2625 12.4999L15.8875 10.8874C16.0046 10.7712 16.0976 10.633 16.1611 10.4806C16.2246 10.3283 16.2572 10.1649 16.2572 9.99992C16.2572 9.83491 16.2246 9.67153 16.1611 9.5192C16.0976 9.36688 16.0046 9.22863 15.8875 9.11242V9.11242Z" fill="#DC772C"/>
</svg>
