<svg width="1920" height="484" viewBox="0 0 1920 484" fill="none" xmlns="http://www.w3.org/2000/svg">
<rect x="3" y="87" width="1920" height="300" fill="#0078E7" fill-opacity="0.3"/>
<path d="M135.287 197.217C140.846 145.957 194.278 116.057 232.722 142.694L284.589 178.631C323.988 205.929 318.122 271.813 274.1 296.447L214.732 329.668C170.71 354.303 122.089 318.909 127.787 266.376L135.287 197.217Z" fill="#0078E7" fill-opacity="0.4"/>
<path d="M1284.76 207.217C1290.32 155.957 1343.75 126.057 1382.2 152.694L1434.06 188.631C1473.46 215.93 1467.6 281.813 1423.57 306.447L1364.21 339.669C1320.18 364.303 1271.56 328.91 1277.26 276.376L1284.76 207.217Z" fill="white" fill-opacity="0.4"/>
<path d="M417.608 157.131C430.622 127.566 464.524 114.79 490.203 129.774L567.97 175.15C589.848 187.915 597.999 216.585 586.911 241.773L547.499 331.308C534.485 360.874 500.584 373.65 474.904 358.666L397.137 313.29C375.26 300.525 367.109 271.854 378.196 246.666L417.608 157.131Z" fill="#DC772C" fill-opacity="0.4"/>
<path d="M1010.24 174.248L1117.05 109L1236.07 174.248L1117.05 365L1037.82 339L1010.24 174.248Z" fill="#32C973" fill-opacity="0.4"/>
<path d="M667.342 304.311C693.115 267.844 874.955 176.242 962.654 135C803.722 416.316 699.558 365.089 667.342 304.311Z" fill="white" fill-opacity="0.4"/>
<path d="M1511.25 304.311C1537.03 267.844 1718.87 176.242 1806.57 135C1647.63 416.316 1543.47 365.089 1511.25 304.311Z" fill="#DC772C" fill-opacity="0.4"/>
</svg>
