<svg width="261" height="245" viewBox="0 0 261 245" fill="none" xmlns="http://www.w3.org/2000/svg">
<style>
    svg { cursor: pointer; }
</style>
<g clip-path="url(#clip0_24_35)">
<path d="M149.603 17.9552C149.603 17.737 149.589 17.6089 149.575 17.4323C149.56 17.2557 149.549 17.1172 149.532 16.9613C149.497 16.6497 149.454 16.3449 149.405 16.0437C149.308 15.4411 149.188 14.849 149.044 14.2672C148.752 13.1068 148.368 11.9831 147.897 10.9117C146.975 8.78615 145.713 6.90286 144.184 5.37102C143.431 4.6276 142.626 3.96375 141.778 3.38678C140.937 2.82641 140.061 2.34592 139.158 1.94968C137.372 1.17281 135.516 0.6555 133.629 0.408691C135.463 0.878588 137.243 1.60976 138.934 2.58685C139.765 3.07162 140.564 3.63433 141.322 4.26982C142.068 4.90415 142.767 5.61432 143.413 6.39258C144.681 7.9392 145.683 9.77411 146.36 11.7912C146.69 12.7794 146.94 13.8033 147.109 14.849C147.189 15.3719 147.249 15.8878 147.289 16.4142C147.307 16.6739 147.321 16.9336 147.327 17.1899C147.327 17.318 147.327 17.4461 147.327 17.5673C147.327 17.6885 147.327 17.8305 147.327 17.9136L149.603 17.9552Z" fill="#02263C"/>
<path d="M150.036 17.6954C150.076 17.5396 150.096 17.4322 150.119 17.3214C150.142 17.2106 150.162 17.0998 150.18 16.9751C150.217 16.7604 150.251 16.5457 150.277 16.3345C150.337 15.9155 150.369 15.4965 150.406 15.0809C150.443 14.6654 150.449 14.2498 150.458 13.8343C150.466 13.4187 150.458 13.0101 150.443 12.598C150.388 10.9728 150.151 9.36405 149.738 7.81576C149.345 6.30191 148.779 4.86141 148.058 3.53562C147.709 2.88071 147.326 2.25376 146.911 1.65873C146.711 1.36014 146.498 1.07571 146.271 0.806855L145.623 0L146.122 0.969611C146.296 1.28198 146.453 1.60695 146.593 1.94269C146.883 2.60199 147.138 3.2833 147.355 3.98233C147.796 5.34391 148.079 6.77264 148.195 8.22784C148.317 9.64044 148.278 11.0664 148.081 12.4664C148.041 12.8127 147.966 13.159 147.914 13.5053C147.863 13.8516 147.768 14.1771 147.691 14.5061C147.613 14.8351 147.519 15.1606 147.404 15.4688C147.355 15.6281 147.301 15.777 147.246 15.9224C147.223 15.9946 147.196 16.0652 147.166 16.1336C147.146 16.1903 147.122 16.2448 147.094 16.2964L150.036 17.6954Z" fill="#02263C"/>
<path d="M149.514 19.593C149.612 19.4788 149.669 19.3957 149.732 19.3091C149.795 19.2225 149.859 19.1359 149.913 19.0528C150.028 18.8832 150.142 18.7065 150.246 18.5403C150.461 18.194 150.65 17.8477 150.842 17.5015C151.034 17.1552 151.203 16.8089 151.37 16.428C151.536 16.047 151.694 15.7042 151.831 15.3268C152.409 13.8564 152.819 12.2975 153.047 10.6934C153.281 9.13317 153.336 7.54144 153.21 5.96308C153.156 5.18998 153.06 4.42193 152.924 3.66372C152.857 3.28617 152.772 2.91381 152.669 2.54867L152.408 1.45093L152.476 2.58676C152.508 2.96176 152.522 3.33873 152.517 3.71566C152.521 4.46226 152.484 5.20838 152.408 5.94923C152.276 7.40137 151.978 8.82437 151.522 10.1774C151.085 11.4976 150.502 12.7395 149.787 13.8689C149.618 14.1528 149.423 14.4126 149.245 14.6827C149.067 14.9528 148.858 15.1986 148.671 15.4445C148.485 15.6904 148.267 15.9258 148.055 16.1371C147.952 16.2514 147.846 16.3518 147.742 16.4522C147.691 16.5041 147.639 16.5526 147.59 16.5942C147.55 16.6319 147.508 16.6666 147.464 16.6981L149.514 19.593Z" fill="#02263C"/>
<path d="M157.939 36.4712C159.762 38.4712 161.199 40.9313 162.148 43.677C163.096 46.4227 163.533 49.3867 163.427 52.359C162.125 48.948 160.204 45.7518 157.552 43.9961" fill="#02263C"/>
<path d="M156.591 41.0354C160.221 44.9069 162.326 50.9878 162.079 56.9232C160.775 53.5088 158.853 50.316 156.201 48.5603" fill="#02263C"/>
<path d="M152.382 68.9531C153.728 71.4443 155.512 73.5475 157.607 75.1135C159.701 76.6796 162.055 77.6703 164.502 78.0155C161.921 75.9378 159.613 73.1259 158.595 69.6838" fill="#02263C"/>
<path d="M151.522 78.4692C154.102 83.4108 158.75 86.8806 163.642 87.5351C161.061 85.4366 158.75 82.642 157.735 79.1999" fill="#02263C"/>
<path d="M75.0921 113.746C72.6406 113.237 69.8305 112.672 68.308 112.423L66.8485 121.475L83.1924 118.445C80.9084 115.996 78.1025 114.369 75.0921 113.746Z" fill="#FFB999"/>
<path d="M75.5911 113.209C75.9065 115.578 77.0563 117.385 78.9401 118.147C86.6218 121.264 96.302 119.816 103.356 114.992C105.027 113.849 106.596 112.5 108.038 110.968C112.736 106.018 116.007 99.3896 117.377 92.0437L114.143 72.0005C113.979 72.1217 113.822 72.2464 113.667 72.3779C113.036 72.8974 112.167 73.4861 111.631 74.1336H111.918C110.865 75.3941 109.698 76.8659 108.956 78.4519C108.02 80.499 107.259 82.656 106.685 84.8894C105.346 89.9314 104.563 95.2331 102.576 99.953C97.7729 111.367 85.6067 117.337 75.5911 113.209Z" fill="#EDDFDF"/>
<path d="M70.3036 217.584L66.7682 228.925L58.3467 226.678L65.7703 216.608" fill="#FFB999"/>
<path d="M70.3036 217.584L69.0162 221.715L62.7424 220.715L65.7704 216.608" fill="#FC8C60"/>
<path d="M95.0776 142.426L82.5186 147.391C80.6785 148.119 78.9976 149.337 77.6004 150.955C76.2031 152.574 75.1254 154.551 74.447 156.741C71.153 167.418 68.703 178.446 67.1295 189.68L62.9202 219.866L70.0456 220.386L86.335 176.715" fill="#277BA0"/>
<path d="M89.4604 160.034C89.5167 160.034 89.5717 160.014 89.6186 159.977C89.6656 159.939 89.7023 159.886 89.7242 159.823L90.1199 158.711C90.1386 158.669 90.1498 158.623 90.1528 158.575C90.1558 158.527 90.1506 158.479 90.1375 158.434C90.1244 158.389 90.1037 158.347 90.0767 158.312C90.0497 158.277 90.0169 158.249 89.9805 158.231C89.9441 158.212 89.9049 158.202 89.8652 158.202C89.8256 158.202 89.7865 158.213 89.7502 158.232C89.714 158.252 89.6815 158.28 89.6549 158.315C89.6282 158.351 89.6079 158.392 89.5952 158.438L89.1966 159.549C89.1668 159.633 89.1658 159.728 89.1938 159.813C89.2217 159.898 89.2763 159.966 89.3457 160.003C89.3818 160.023 89.4208 160.033 89.4604 160.034Z" fill="#74CFF7"/>
<path d="M70.2463 213.716C70.3026 213.716 70.3576 213.696 70.4045 213.659C70.4514 213.621 70.4881 213.568 70.5101 213.505L71.313 211.271C71.3281 211.229 71.3361 211.184 71.3366 211.138C71.3371 211.093 71.3301 211.047 71.316 211.005C71.3019 210.962 71.2809 210.923 71.2543 210.891C71.2277 210.858 71.1959 210.832 71.161 210.814C71.0914 210.778 71.0128 210.777 70.9424 210.811C70.8721 210.845 70.8156 210.911 70.7854 210.994L69.9854 213.231C69.9702 213.273 69.962 213.318 69.9613 213.364C69.9605 213.41 69.9673 213.455 69.9812 213.497C69.995 213.54 70.0157 213.579 70.042 213.611C70.0683 213.644 70.0997 213.67 70.1345 213.689C70.17 213.706 70.2079 213.715 70.2463 213.716ZM71.8491 209.242C71.9051 209.242 71.9599 209.223 72.0068 209.186C72.0537 209.149 72.0906 209.096 72.1129 209.034L72.9129 206.797C72.928 206.756 72.9361 206.71 72.9367 206.665C72.9374 206.619 72.9306 206.574 72.9168 206.531C72.9029 206.489 72.8823 206.45 72.856 206.418C72.8298 206.385 72.7985 206.358 72.7638 206.34C72.7292 206.322 72.6919 206.312 72.6542 206.311C72.6164 206.311 72.5789 206.319 72.5437 206.336C72.5086 206.352 72.4765 206.377 72.4493 206.409C72.4221 206.441 72.4004 206.478 72.3853 206.52L71.5853 208.757C71.5702 208.799 71.562 208.844 71.5613 208.89C71.5605 208.936 71.5673 208.981 71.5812 209.023C71.595 209.066 71.6157 209.105 71.642 209.137C71.6683 209.17 71.6997 209.196 71.7344 209.214C71.771 209.232 71.8098 209.241 71.8491 209.242ZM73.4491 204.768C73.5051 204.768 73.5599 204.749 73.6068 204.712C73.6536 204.675 73.6905 204.622 73.7129 204.56L74.5129 202.323C74.5304 202.281 74.5406 202.235 74.5428 202.188C74.5451 202.142 74.5395 202.095 74.5263 202.05C74.513 202.006 74.4925 201.966 74.4659 201.931C74.4392 201.897 74.4071 201.87 74.3715 201.851C74.3358 201.832 74.2973 201.822 74.2584 201.822C74.2195 201.821 74.1809 201.831 74.145 201.849C74.1092 201.867 74.0768 201.894 74.0498 201.928C74.0229 201.962 74.0019 202.002 73.9882 202.046L73.1853 204.283C73.1702 204.325 73.1622 204.371 73.1617 204.416C73.1611 204.462 73.1681 204.508 73.1823 204.55C73.1964 204.593 73.2174 204.631 73.244 204.664C73.2706 204.697 73.3023 204.723 73.3373 204.74C73.3727 204.759 73.4107 204.768 73.4491 204.768ZM75.052 200.294C75.1075 200.294 75.1616 200.274 75.208 200.237C75.2543 200.2 75.2907 200.148 75.3129 200.086L76.1158 197.849C76.1307 197.807 76.1386 197.762 76.139 197.717C76.1395 197.671 76.1326 197.626 76.1186 197.584C76.1046 197.542 76.0839 197.503 76.0576 197.47C76.0313 197.438 75.9999 197.412 75.9652 197.394C75.9306 197.376 75.8934 197.366 75.8557 197.366C75.818 197.365 75.7805 197.374 75.7455 197.39C75.7105 197.407 75.6786 197.432 75.6516 197.464C75.6246 197.496 75.6031 197.534 75.5882 197.576L74.7882 199.813C74.7584 199.897 74.7574 199.992 74.7853 200.077C74.8133 200.162 74.8679 200.23 74.9373 200.266C74.9733 200.286 75.0125 200.295 75.052 200.294ZM76.652 195.82C76.7079 195.82 76.7627 195.801 76.8096 195.764C76.8565 195.727 76.8934 195.674 76.9158 195.612L77.7158 193.375C77.7458 193.291 77.7468 193.195 77.7186 193.11C77.6904 193.024 77.6352 192.956 77.5652 192.92C77.4953 192.884 77.4162 192.882 77.3455 192.916C77.2748 192.95 77.2182 193.017 77.1882 193.102L76.3882 195.339C76.3584 195.423 76.3574 195.518 76.3853 195.603C76.4132 195.688 76.4679 195.756 76.5373 195.792C76.5735 195.811 76.6126 195.82 76.652 195.82ZM78.2519 191.349C78.3082 191.349 78.3633 191.329 78.4102 191.292C78.4571 191.254 78.4938 191.201 78.5158 191.138L79.3157 188.901C79.3344 188.859 79.3456 188.812 79.3486 188.765C79.3516 188.717 79.3464 188.669 79.3333 188.624C79.3203 188.579 79.2995 188.537 79.2725 188.502C79.2455 188.467 79.2128 188.439 79.1764 188.42C79.14 188.401 79.1007 188.392 79.0611 188.392C79.0214 188.392 78.9823 188.402 78.9461 188.422C78.9099 188.441 78.8774 188.47 78.8507 188.505C78.824 188.54 78.8037 188.582 78.791 188.628L77.991 190.865C77.9613 190.949 77.9602 191.044 77.9882 191.128C78.0161 191.213 78.0707 191.282 78.1401 191.318C78.1751 191.338 78.2132 191.349 78.2519 191.349ZM79.8548 186.875C79.9134 186.876 79.9706 186.854 80.0188 186.814C80.067 186.774 80.1038 186.716 80.1243 186.65L80.9243 184.413C80.9544 184.329 80.9554 184.233 80.9272 184.148C80.8989 184.062 80.8438 183.994 80.7738 183.958C80.7038 183.922 80.6248 183.92 80.5541 183.954C80.4834 183.988 80.4268 184.055 80.3967 184.14L79.5967 186.377C79.567 186.461 79.5659 186.556 79.5939 186.641C79.6218 186.726 79.6764 186.794 79.7458 186.83C79.779 186.855 79.8162 186.87 79.8548 186.875ZM81.4548 182.401C81.5108 182.401 81.5656 182.382 81.6124 182.345C81.6593 182.308 81.6962 182.255 81.7186 182.193L82.5186 179.956C82.5336 179.915 82.5417 179.87 82.5424 179.824C82.5431 179.778 82.5363 179.733 82.5224 179.691C82.5086 179.648 82.4879 179.609 82.4617 179.577C82.4355 179.544 82.4041 179.518 82.3695 179.499C82.3348 179.481 82.2976 179.471 82.2598 179.471C82.222 179.47 82.1845 179.478 82.1494 179.495C82.1142 179.511 82.0821 179.536 82.055 179.568C82.0278 179.6 82.0061 179.638 81.991 179.679L81.191 181.916C81.1758 181.958 81.1676 182.003 81.1669 182.049C81.1662 182.095 81.1729 182.14 81.1868 182.182C81.2007 182.225 81.2213 182.264 81.2477 182.296C81.274 182.329 81.3054 182.355 81.3401 182.374C81.3766 182.391 81.4155 182.4 81.4548 182.401ZM83.0548 177.927C83.1107 177.927 83.1655 177.908 83.2124 177.871C83.2593 177.834 83.2962 177.781 83.3186 177.719L84.1186 175.482C84.136 175.44 84.1462 175.394 84.1485 175.348C84.1508 175.301 84.1451 175.254 84.1319 175.209C84.1187 175.165 84.0981 175.125 84.0715 175.09C84.0449 175.056 84.0128 175.029 83.9771 175.01C83.9414 174.991 83.903 174.981 83.8641 174.981C83.8251 174.981 83.7866 174.99 83.7507 175.008C83.7148 175.026 83.6824 175.053 83.6555 175.087C83.6285 175.121 83.6075 175.161 83.5938 175.205L82.7939 177.442C82.7787 177.484 82.7705 177.529 82.7698 177.575C82.769 177.621 82.7758 177.666 82.7897 177.708C82.8035 177.751 82.8242 177.79 82.8505 177.822C82.8768 177.855 82.9082 177.881 82.943 177.899C82.9785 177.917 83.0164 177.926 83.0548 177.927ZM84.6576 173.453C84.7136 173.453 84.7684 173.434 84.8153 173.397C84.8621 173.36 84.899 173.307 84.9214 173.245L85.7214 171.008C85.7363 170.966 85.7442 170.922 85.7447 170.876C85.7452 170.83 85.7382 170.785 85.7242 170.743C85.7103 170.701 85.6895 170.662 85.6632 170.63C85.6369 170.597 85.6055 170.571 85.5709 170.553C85.5362 170.535 85.499 170.525 85.4613 170.525C85.4236 170.524 85.3862 170.533 85.3512 170.55C85.3162 170.566 85.2843 170.591 85.2573 170.623C85.2303 170.655 85.2087 170.693 85.1938 170.735L84.3938 172.968C84.3787 173.01 84.3705 173.055 84.3697 173.101C84.369 173.146 84.3758 173.192 84.3896 173.234C84.4035 173.277 84.4242 173.316 84.4505 173.348C84.4768 173.381 84.5082 173.407 84.5429 173.425C84.579 173.445 84.6182 173.454 84.6576 173.453ZM86.2576 168.989C86.3136 168.99 86.3684 168.97 86.4153 168.933C86.4621 168.896 86.499 168.844 86.5214 168.782L87.3214 166.545C87.3512 166.461 87.3522 166.366 87.3243 166.281C87.2963 166.196 87.2417 166.128 87.1723 166.091C87.1377 166.073 87.1004 166.063 87.0626 166.062C87.0248 166.061 86.9872 166.069 86.952 166.086C86.9169 166.103 86.8848 166.128 86.8576 166.159C86.8305 166.191 86.8088 166.229 86.7938 166.271L85.9938 168.508C85.964 168.592 85.963 168.687 85.9909 168.772C86.0189 168.857 86.0735 168.925 86.1429 168.962C86.1792 168.98 86.2182 168.99 86.2576 168.989ZM87.8662 164.508C87.9225 164.508 87.9775 164.488 88.0244 164.451C88.0713 164.413 88.1081 164.36 88.13 164.297L88.9214 162.064C88.9444 161.981 88.9409 161.891 88.9116 161.812C88.8823 161.733 88.8294 161.669 88.7633 161.635C88.6973 161.601 88.6229 161.597 88.555 161.626C88.487 161.655 88.4305 161.713 88.3967 161.79L87.5967 164.027C87.5669 164.111 87.5659 164.206 87.5938 164.291C87.6217 164.376 87.6764 164.444 87.7458 164.481C87.7836 164.501 87.8248 164.511 87.8662 164.508Z" fill="#74CFF7"/>
<path d="M69.0506 217.065C69.1061 217.065 69.1602 217.045 69.2066 217.008C69.2529 216.971 69.2893 216.919 69.3115 216.857L69.7101 215.739C69.7287 215.696 69.7399 215.65 69.7429 215.602C69.746 215.555 69.7408 215.507 69.7277 215.461C69.7146 215.416 69.6939 215.375 69.6668 215.34C69.6398 215.305 69.6071 215.277 69.5707 215.258C69.5343 215.239 69.495 215.229 69.4554 215.229C69.4158 215.23 69.3766 215.24 69.3404 215.259C69.3042 215.279 69.2717 215.307 69.245 215.343C69.2183 215.378 69.198 215.42 69.1853 215.465L68.7868 216.577C68.7716 216.619 68.7634 216.664 68.7627 216.709C68.762 216.755 68.7687 216.8 68.7826 216.843C68.7965 216.885 68.8171 216.924 68.8434 216.957C68.8698 216.99 68.9012 217.016 68.9359 217.034C68.9722 217.053 69.0111 217.063 69.0506 217.065Z" fill="#74CFF7"/>
<path d="M69.6814 230.975C69.7273 228.79 69.6814 226.352 68.4456 224.77C68.2464 224.478 67.9642 224.286 67.6542 224.233C67.3376 224.252 67.0351 224.397 66.794 224.645C66.123 225.213 65.4836 225.871 64.7123 226.203C63.941 226.536 62.9718 226.46 62.4356 225.712C61.8994 224.964 61.9596 223.724 61.475 222.879C60.9905 222.034 60.1216 221.781 59.3302 221.93C58.5417 222.132 57.8056 222.562 57.1855 223.184C54.1919 225.906 52.093 230.11 48.6493 231.9C47.2328 232.637 45.6587 232.911 44.2967 233.794C42.9347 234.677 41.7763 236.485 42.1548 238.296C42.4702 239.781 43.7289 240.72 44.982 240.997C46.3382 241.277 47.726 240.935 49.0737 240.592L61.3517 237.475" fill="#EA5347"/>
<path d="M39.7691 116.485H43.8981V120.786H39.7691V116.485Z" fill="#E2ECFF"/>
<path d="M44.9905 116.485H49.1196V120.786H44.9905V116.485Z" fill="#E2ECFF"/>
<path d="M50.212 116.485H54.341V120.786H50.212V116.485Z" fill="#E2ECFF"/>
<path d="M55.4335 116.485H59.5625V120.786H55.4335V116.485Z" fill="#E2ECFF"/>
<path d="M34.5448 116.485H38.6738V120.786H34.5448V116.485Z" fill="#E2ECFF"/>
<path d="M29.3233 116.485H33.4523V120.786H29.3233V116.485Z" fill="#E2ECFF"/>
<path d="M24.1019 116.485H28.231V120.786H24.1019V116.485Z" fill="#E2ECFF"/>
<path d="M6.44757 34.6914H16.4862V111.935H6.44757V34.6914Z" fill="#E2ECFF"/>
<path opacity="0.38" d="M6.44467 34.6914H15.2245V111.935H6.44467V34.6914Z" fill="#C5D5ED"/>
<path d="M4.10493 28.4858H14.1436V127.043H4.10493V28.4858Z" fill="#C5D5ED"/>
<path d="M4.10493 118.199H14.1436V127.043H4.10493V118.199Z" fill="#99B0D1"/>
<path d="M19.0811 118.829H71.7057V127.14H19.0811V118.829Z" fill="#99B0D1"/>
<path d="M24.1019 118.829H76.7265V127.14H24.1019V118.829Z" fill="#C5D5ED"/>
<path d="M196.413 116.16C194.221 116.16 192.445 114.014 192.445 111.367C192.445 108.72 194.221 106.574 196.413 106.574C198.605 106.574 200.381 108.72 200.381 111.367C200.381 114.014 198.605 116.16 196.413 116.16Z" fill="#B7959A"/>
<path d="M195.908 96.7324H211.105C211.269 96.7323 211.432 96.7739 211.582 96.8544C211.732 96.935 211.866 97.0526 211.976 97.1999C212.086 97.3471 212.17 97.5206 212.221 97.7091C212.272 97.8976 212.289 98.0969 212.272 98.2942L209.93 126.344C209.9 126.694 209.765 127.018 209.548 127.253C209.332 127.489 209.051 127.619 208.76 127.618H199.034C198.749 127.619 198.474 127.495 198.259 127.269C198.045 127.042 197.907 126.73 197.87 126.389L194.744 98.3392C194.722 98.1389 194.736 97.9351 194.784 97.7416C194.833 97.5482 194.915 97.3694 195.025 97.2173C195.135 97.0652 195.271 96.9432 195.423 96.8596C195.576 96.776 195.741 96.7326 195.908 96.7324Z" fill="#CEB6B9"/>
<path d="M142.495 188.86C119.633 188.86 101.099 166.477 101.099 138.866C101.099 111.255 119.633 88.8718 142.495 88.8718C165.358 88.8718 183.891 111.255 183.891 138.866C183.891 166.477 165.358 188.86 142.495 188.86Z" fill="#EFD8DB"/>
<path d="M117.647 167.189L107.895 243.521H112.772L136.422 178.959" fill="#F6C375"/>
<path d="M167.401 166.624L177.153 242.957H172.278L148.626 178.395" fill="#F6C375"/>
<path opacity="0.49" d="M167.401 166.624L170.555 191.232C168.875 193.678 166.695 195.554 164.231 196.673C161.767 197.792 159.104 198.117 156.505 197.614L155.616 197.441L148.637 178.395" fill="#F2A43D"/>
<path d="M173.818 243.012C173.848 243.012 173.877 243.005 173.904 242.992C173.931 242.978 173.955 242.959 173.975 242.934C173.995 242.909 174.011 242.88 174.022 242.847C174.032 242.815 174.037 242.78 174.036 242.746C174.035 242.711 174.028 242.677 174.016 242.645L171.822 236.377C171.108 234.334 170.438 232.222 169.833 230.144L166.678 219.257C165.137 213.942 163.248 208.783 161.03 203.83C158.51 198.2 156.418 192.306 154.779 186.221L154.008 183.36C153.989 183.296 153.951 183.243 153.901 183.212C153.85 183.181 153.792 183.174 153.738 183.194C153.709 183.205 153.683 183.222 153.66 183.246C153.637 183.269 153.619 183.298 153.606 183.331C153.593 183.363 153.586 183.399 153.585 183.435C153.584 183.471 153.589 183.507 153.6 183.541L154.369 186.401C156.017 192.516 158.12 198.439 160.651 204.096C162.859 209.026 164.739 214.159 166.274 219.447L169.428 230.335C170.036 232.433 170.71 234.539 171.435 236.592L173.629 242.856C173.645 242.901 173.671 242.94 173.705 242.967C173.738 242.995 173.778 243.011 173.818 243.012Z" fill="#E29233"/>
<path d="M175.911 243.189H175.943C175.999 243.178 176.05 243.14 176.084 243.085C176.117 243.029 176.132 242.959 176.124 242.891L175.223 235.823C174.936 233.624 174.575 231.408 174.165 229.244L172.049 217.996C171.022 212.528 170.357 206.97 170.059 201.374C169.715 194.957 168.891 188.59 167.596 182.353L166.988 179.437C166.984 179.401 166.973 179.367 166.957 179.337C166.941 179.306 166.92 179.28 166.895 179.26C166.87 179.241 166.842 179.227 166.812 179.221C166.783 179.215 166.753 179.216 166.724 179.225C166.695 179.233 166.668 179.249 166.644 179.271C166.62 179.293 166.601 179.321 166.587 179.353C166.572 179.385 166.564 179.419 166.561 179.455C166.559 179.491 166.563 179.528 166.572 179.562L167.177 182.495C168.468 188.701 169.288 195.037 169.629 201.423C169.931 207.043 170.602 212.625 171.636 218.117L173.752 229.365C174.159 231.526 174.512 233.732 174.805 235.917L175.705 242.978C175.714 243.036 175.739 243.09 175.777 243.128C175.814 243.167 175.862 243.188 175.911 243.189Z" fill="#E29233"/>
<path d="M166.108 203.688C166.132 203.693 166.156 203.693 166.18 203.688C166.22 203.67 166.255 203.638 166.281 203.596C166.306 203.554 166.321 203.504 166.323 203.452C166.561 196.468 164.049 177.522 164.029 177.332C164.025 177.297 164.016 177.264 164.001 177.234C163.987 177.204 163.967 177.178 163.944 177.157C163.921 177.136 163.895 177.121 163.867 177.113C163.839 177.105 163.81 177.103 163.781 177.109C163.753 177.115 163.726 177.127 163.701 177.146C163.677 177.164 163.656 177.188 163.639 177.217C163.623 177.245 163.611 177.277 163.605 177.311C163.599 177.345 163.599 177.381 163.605 177.415C163.628 177.598 165.987 195.38 165.913 202.777C164.158 200.353 156.542 189.472 154.661 181.258C154.656 181.223 154.644 181.189 154.628 181.16C154.611 181.13 154.589 181.105 154.564 181.086C154.538 181.067 154.51 181.054 154.481 181.049C154.451 181.044 154.421 181.046 154.392 181.056C154.364 181.066 154.337 181.082 154.314 181.105C154.291 181.128 154.272 181.156 154.258 181.188C154.245 181.22 154.237 181.255 154.235 181.291C154.234 181.327 154.238 181.363 154.248 181.397C156.396 190.757 165.858 203.476 165.947 203.618C165.969 203.643 165.994 203.661 166.022 203.673C166.049 203.685 166.079 203.69 166.108 203.688Z" fill="#E29233"/>
<path d="M169.606 221.819C169.638 221.82 169.669 221.812 169.698 221.795C169.724 221.781 169.747 221.761 169.767 221.736C169.787 221.711 169.802 221.681 169.811 221.649C169.821 221.616 169.825 221.582 169.823 221.547C169.821 221.513 169.814 221.479 169.801 221.449C168.521 218.018 167.66 214.381 167.246 210.651C167.238 210.583 167.208 210.521 167.162 210.48C167.117 210.438 167.059 210.42 167.002 210.43C166.946 210.439 166.895 210.476 166.86 210.531C166.826 210.586 166.811 210.656 166.819 210.724C167.236 214.503 168.106 218.189 169.4 221.667C169.418 221.714 169.447 221.754 169.484 221.781C169.52 221.808 169.563 221.821 169.606 221.819Z" fill="#E29233"/>
<path d="M111.433 243.442C111.475 243.442 111.516 243.427 111.551 243.399C111.586 243.372 111.614 243.332 111.631 243.286L113.824 237.018C114.541 234.971 115.215 232.862 115.832 230.76L118.986 219.877C120.52 214.587 122.399 209.453 124.606 204.522C127.135 198.866 129.234 192.945 130.877 186.83L131.648 183.966C131.665 183.901 131.66 183.83 131.635 183.769C131.609 183.708 131.564 183.662 131.51 183.641C131.456 183.62 131.397 183.626 131.346 183.657C131.295 183.688 131.256 183.742 131.238 183.807L130.469 186.667C128.832 192.753 126.742 198.646 124.224 204.276C122.007 209.231 120.119 214.389 118.576 219.703L115.422 230.591C114.817 232.669 114.146 234.777 113.432 236.824L111.235 243.095C111.224 243.127 111.218 243.161 111.217 243.196C111.217 243.231 111.222 243.265 111.233 243.297C111.244 243.329 111.259 243.359 111.28 243.384C111.3 243.408 111.323 243.428 111.35 243.442C111.377 243.449 111.406 243.449 111.433 243.442Z" fill="#E29233"/>
<path d="M109.343 243.618C109.394 243.618 109.443 243.596 109.482 243.556C109.521 243.516 109.547 243.461 109.555 243.4L110.452 236.336C110.739 234.154 111.1 231.948 111.508 229.788L113.621 218.54C114.654 213.048 115.325 207.466 115.628 201.845C115.972 195.459 116.792 189.122 118.08 182.914L118.687 179.998C118.694 179.965 118.696 179.93 118.692 179.896C118.688 179.862 118.678 179.83 118.664 179.8C118.649 179.771 118.63 179.745 118.607 179.725C118.585 179.704 118.559 179.69 118.531 179.681C118.504 179.673 118.475 179.671 118.447 179.676C118.419 179.681 118.392 179.692 118.368 179.71C118.343 179.727 118.322 179.751 118.305 179.778C118.288 179.805 118.276 179.837 118.269 179.87L117.664 182.789C116.368 189.027 115.544 195.393 115.201 201.811C114.901 207.406 114.234 212.964 113.208 218.433L111.092 229.67C110.685 231.844 110.329 234.061 110.034 236.249L109.136 243.314C109.131 243.347 109.132 243.381 109.139 243.415C109.145 243.448 109.157 243.479 109.173 243.506C109.19 243.534 109.211 243.557 109.235 243.575C109.259 243.592 109.286 243.603 109.314 243.608L109.343 243.618Z" fill="#E29233"/>
<path d="M119.146 204.121C119.176 204.12 119.206 204.112 119.234 204.097C119.262 204.083 119.286 204.061 119.307 204.034C119.407 203.909 128.869 191.187 131.011 181.802C131.019 181.769 131.021 181.735 131.018 181.701C131.015 181.667 131.006 181.634 130.992 181.604C130.978 181.574 130.96 181.548 130.937 181.526C130.915 181.505 130.89 181.49 130.862 181.48C130.835 181.471 130.806 181.468 130.778 181.472C130.75 181.476 130.723 181.487 130.698 181.504C130.673 181.52 130.651 181.543 130.634 181.57C130.616 181.596 130.603 181.627 130.596 181.66C128.715 189.878 121.099 200.751 119.347 203.179C119.27 195.785 121.641 178.003 121.641 177.82C121.646 177.786 121.646 177.751 121.64 177.717C121.634 177.683 121.622 177.65 121.606 177.622C121.589 177.593 121.568 177.569 121.544 177.551C121.52 177.532 121.493 177.52 121.464 177.514C121.436 177.509 121.407 177.51 121.379 177.518C121.351 177.527 121.324 177.542 121.301 177.562C121.278 177.583 121.259 177.609 121.244 177.639C121.23 177.669 121.22 177.702 121.216 177.737C121.191 177.927 118.676 196.873 118.923 203.857C118.924 203.909 118.939 203.959 118.964 204.001C118.989 204.043 119.023 204.075 119.063 204.093C119.089 204.109 119.117 204.118 119.146 204.121Z" fill="#E29233"/>
<path d="M115.645 222.252C115.686 222.252 115.726 222.238 115.76 222.211C115.795 222.185 115.822 222.148 115.84 222.103C117.135 218.626 118.005 214.94 118.421 211.16C118.427 211.125 118.428 211.089 118.422 211.054C118.417 211.019 118.405 210.985 118.388 210.955C118.371 210.926 118.35 210.901 118.324 210.882C118.299 210.863 118.271 210.851 118.241 210.846C118.212 210.841 118.182 210.843 118.153 210.853C118.125 210.862 118.098 210.879 118.075 210.902C118.052 210.925 118.033 210.953 118.019 210.985C118.006 211.017 117.998 211.052 117.996 211.088C117.581 214.816 116.72 218.452 115.439 221.882C115.415 221.944 115.413 222.015 115.432 222.08C115.451 222.145 115.491 222.198 115.542 222.228C115.574 222.246 115.61 222.254 115.645 222.252Z" fill="#E29233"/>
<path opacity="0.49" d="M117.647 167.189L114.685 190.39C119.594 193.108 124.977 194.341 130.369 193.981L130.943 193.943L136.431 178.963" fill="#F2A43D"/>
<path d="M2.90923 242.753H13.6016L33.9598 130.132H23.2675L2.90923 242.753Z" fill="#F6C375"/>
<path opacity="0.49" d="M21.1858 141.646H31.8781L33.9598 130.132H23.2675L21.1858 141.646Z" fill="#F2A43D"/>
<path d="M213.044 242.753H202.351L181.993 130.132H192.685L213.044 242.753Z" fill="#F6C375"/>
<path opacity="0.49" d="M194.506 140.202H183.888L181.993 130.132H192.685L194.506 140.202Z" fill="#F2A43D"/>
<path d="M232.556 98.0313C233.204 98.8139 234.107 98.0313 234.876 98.3983C236.639 99.2225 238.437 99.0632 241.7 96.4487C241.849 98.0624 241.339 99.6381 240.742 100.95C238.781 105.22 235.656 107.939 232.427 108.181" fill="#78AD04"/>
<path d="M231.633 97.8613C232.129 99.4924 233.517 99.4889 234.317 100.732C236.146 103.575 238.403 105.272 243.337 105.494C242.916 107.609 241.703 108.991 240.493 109.943C238.601 111.478 236.377 112.306 234.098 112.323C231.819 112.341 229.587 111.548 227.679 110.044" fill="#83CE00"/>
<path d="M225.735 162.968C226.383 163.75 227.286 162.968 228.057 163.335C229.818 164.162 231.615 163.999 234.879 161.388C235.028 163.002 234.517 164.578 233.924 165.873C231.96 170.143 228.834 172.861 225.608 173.1" fill="#78AD04"/>
<path d="M224.814 162.801C225.307 164.429 226.695 164.425 227.495 165.672C229.324 168.515 231.57 170.198 236.516 170.43C236.094 172.546 234.881 173.931 233.671 174.88C231.78 176.414 229.557 177.241 227.279 177.26C225.001 177.278 222.768 176.487 220.86 174.984" fill="#83CE00"/>
<path d="M226.755 106.983C225.973 107.256 225.339 105.944 224.547 105.736C222.738 105.29 221.135 103.918 218.796 99.3091C218.265 100.694 218.345 102.467 218.572 104.053C219.317 109.289 221.505 113.902 224.387 116.315" fill="#78AD04"/>
<path d="M227.638 107.457C226.778 108.607 225.522 107.662 224.484 108.25C222.119 109.601 219.656 109.604 215.085 106.446C214.95 108.666 215.719 110.754 216.591 112.447C219.458 118.029 223.851 121.347 228.261 121.274" fill="#83CE00"/>
<path d="M221.643 128.079C220.86 128.352 220.226 127.04 219.435 126.832C217.626 126.385 216.023 125.014 213.683 120.405C213.153 121.773 213.233 123.563 213.459 125.149C214.205 130.385 216.393 134.994 219.274 137.411" fill="#78AD04"/>
<path d="M222.526 128.553C221.666 129.703 220.41 128.757 219.372 129.346C217.006 130.693 214.543 130.7 209.973 127.542C209.838 129.762 210.606 131.85 211.478 133.543C214.345 139.125 218.738 142.443 223.148 142.367" fill="#83CE00"/>
<path d="M216.791 161.433C216.008 161.707 215.375 160.394 214.583 160.19C212.774 159.743 211.171 158.369 208.831 153.763C208.301 155.148 208.381 156.918 208.608 158.504C209.353 163.74 211.541 168.352 214.423 170.766" fill="#78AD04"/>
<path d="M217.674 161.911C216.814 163.061 215.558 162.112 214.52 162.701C212.155 164.051 209.692 164.055 205.121 160.9C204.986 163.12 205.755 165.208 206.626 166.898C209.494 172.48 213.887 175.801 218.297 175.725" fill="#83CE00"/>
<path d="M217.987 116.353C223.194 125.526 230.741 127.556 237.198 127.192C238.058 115.023 238.543 100.874 236.387 89.0483C235.624 84.8547 234.514 77.967 231.957 78.9608C230.669 79.4699 229.018 83.3345 228.264 85.1456C224.133 95.189 220.696 105.627 217.987 116.353Z" fill="#ADE701"/>
<path d="M212.355 144.798C218.583 153.697 227.355 154.22 233.904 152.942C234.764 148.177 235.509 143.357 236.103 138.478C236.556 134.724 236.929 130.96 237.19 127.196C230.738 127.559 223.191 125.53 217.978 116.357C215.607 125.684 213.728 135.183 212.355 144.798Z" fill="#83CE00"/>
<path d="M209.904 196.402L226.893 184.479C229.474 174.132 231.977 163.67 233.906 152.949C227.357 154.227 218.586 153.704 212.358 144.804C209.915 161.811 209.003 179.343 209.904 196.402Z" fill="#ADE701"/>
<path d="M216.373 192.263C216.426 192.263 216.477 192.24 216.518 192.199C216.559 192.158 216.586 192.101 216.596 192.038L232.588 86.3853C232.594 86.3155 232.579 86.2451 232.544 86.1885C232.51 86.1319 232.459 86.0933 232.401 86.0805C232.344 86.0678 232.285 86.0818 232.236 86.1197C232.187 86.1577 232.152 86.2167 232.137 86.2849L216.146 191.938C216.135 192.01 216.148 192.084 216.183 192.145C216.217 192.205 216.27 192.246 216.33 192.26L216.373 192.263Z" fill="#78AD04"/>
<path d="M227.294 120.052H227.312C230.382 119.644 233.321 118.326 235.868 116.215C235.896 116.196 235.92 116.17 235.939 116.138C235.958 116.107 235.971 116.072 235.978 116.034C235.985 115.996 235.985 115.957 235.979 115.919C235.972 115.882 235.96 115.846 235.941 115.814C235.923 115.783 235.899 115.756 235.871 115.736C235.844 115.717 235.813 115.704 235.782 115.699C235.75 115.695 235.718 115.698 235.687 115.709C235.657 115.721 235.628 115.739 235.604 115.765C233.129 117.817 230.273 119.101 227.289 119.505C227.259 119.506 227.229 119.515 227.202 119.531C227.176 119.547 227.151 119.569 227.132 119.596C227.112 119.623 227.097 119.655 227.087 119.689C227.078 119.723 227.074 119.759 227.076 119.795C227.081 119.863 227.105 119.926 227.145 119.973C227.185 120.021 227.238 120.048 227.294 120.052Z" fill="#78AD04"/>
<path d="M226.695 122.933C226.739 122.933 226.781 122.918 226.818 122.89C226.854 122.862 226.883 122.821 226.902 122.774C226.927 122.707 226.929 122.631 226.908 122.562C226.887 122.493 226.845 122.437 226.79 122.407C224.657 121.079 222.784 119.215 221.296 116.942C221.277 116.913 221.254 116.89 221.227 116.872C221.201 116.854 221.172 116.843 221.142 116.838C221.111 116.834 221.081 116.837 221.052 116.847C221.023 116.857 220.996 116.874 220.972 116.897C220.948 116.92 220.928 116.948 220.914 116.98C220.899 117.012 220.89 117.047 220.886 117.083C220.883 117.12 220.885 117.156 220.893 117.192C220.902 117.227 220.916 117.26 220.935 117.288C222.462 119.639 224.395 121.56 226.6 122.916C226.631 122.93 226.663 122.936 226.695 122.933Z" fill="#78AD04"/>
<path d="M224.243 138.485C224.295 138.485 224.345 138.464 224.385 138.426C224.426 138.388 224.454 138.334 224.467 138.274C224.479 138.213 224.474 138.15 224.453 138.093C224.432 138.037 224.395 137.99 224.35 137.962C222.24 136.515 220.405 134.551 218.962 132.196C218.944 132.167 218.922 132.142 218.897 132.122C218.871 132.103 218.843 132.09 218.813 132.085C218.784 132.079 218.754 132.08 218.724 132.089C218.695 132.097 218.668 132.112 218.644 132.134C218.595 132.177 218.563 132.242 218.554 132.314C218.545 132.386 218.559 132.459 218.595 132.518C220.071 134.952 221.962 136.976 224.14 138.454C224.172 138.474 224.208 138.484 224.243 138.485Z" fill="#78AD04"/>
<path d="M220.482 163.449C220.517 163.45 220.551 163.44 220.583 163.422C220.614 163.403 220.641 163.376 220.662 163.341C220.681 163.313 220.694 163.281 220.702 163.246C220.71 163.211 220.712 163.175 220.708 163.139C220.704 163.103 220.695 163.069 220.68 163.038C220.665 163.006 220.646 162.979 220.622 162.957C218.664 160.983 217.034 158.579 215.816 155.872C215.788 155.808 215.739 155.76 215.682 155.739C215.624 155.717 215.561 155.725 215.508 155.759C215.455 155.794 215.415 155.852 215.398 155.922C215.38 155.992 215.386 156.067 215.415 156.132C216.663 158.91 218.336 161.377 220.344 163.404C220.384 163.437 220.433 163.453 220.482 163.449Z" fill="#78AD04"/>
<path d="M220.396 167.833H220.413C223.484 167.425 226.425 166.105 228.972 163.992C228.996 163.971 229.017 163.945 229.033 163.914C229.048 163.884 229.059 163.85 229.064 163.814C229.069 163.779 229.068 163.742 229.061 163.707C229.055 163.672 229.042 163.639 229.025 163.61C229.008 163.58 228.986 163.555 228.96 163.536C228.935 163.517 228.907 163.504 228.877 163.498C228.848 163.492 228.818 163.494 228.789 163.502C228.76 163.51 228.732 163.525 228.708 163.546C226.234 165.6 223.377 166.884 220.393 167.282C220.337 167.29 220.285 167.322 220.247 167.373C220.21 167.424 220.189 167.489 220.189 167.557C220.189 167.626 220.21 167.691 220.247 167.742C220.285 167.793 220.337 167.825 220.393 167.833H220.396Z" fill="#78AD04"/>
<path d="M223.234 147.173H223.249C224.957 146.964 226.631 146.459 228.221 145.674C228.272 145.642 228.311 145.589 228.331 145.525C228.351 145.46 228.351 145.389 228.33 145.324C228.308 145.26 228.268 145.208 228.217 145.178C228.165 145.148 228.106 145.142 228.051 145.161C226.501 145.916 224.869 146.402 223.206 146.605C223.149 146.613 223.098 146.645 223.06 146.696C223.023 146.747 223.002 146.812 223.002 146.881C223.002 146.949 223.023 147.014 223.06 147.065C223.098 147.116 223.149 147.148 223.206 147.156L223.234 147.173Z" fill="#78AD04"/>
<path d="M229.763 104.008C231.475 103.797 233.154 103.29 234.747 102.502C234.777 102.491 234.806 102.472 234.83 102.447C234.854 102.422 234.874 102.392 234.888 102.357C234.902 102.322 234.91 102.285 234.911 102.246C234.912 102.208 234.906 102.169 234.895 102.133C234.883 102.098 234.865 102.065 234.842 102.038C234.819 102.011 234.792 101.99 234.762 101.977C234.733 101.963 234.701 101.957 234.669 101.959C234.637 101.962 234.606 101.972 234.577 101.989C233.032 102.746 231.407 103.238 229.749 103.451C229.688 103.456 229.632 103.49 229.592 103.545C229.551 103.6 229.531 103.672 229.534 103.745C229.537 103.816 229.562 103.883 229.605 103.932C229.648 103.981 229.704 104.008 229.763 104.008Z" fill="#78AD04"/>
<path d="M225.499 132.238H225.517C227.224 132.029 228.898 131.524 230.486 130.738C230.537 130.707 230.576 130.654 230.596 130.589C230.616 130.524 230.616 130.453 230.595 130.389C230.574 130.325 230.533 130.272 230.482 130.242C230.43 130.212 230.371 130.206 230.317 130.226C228.776 130.984 227.154 131.476 225.499 131.687C225.443 131.697 225.392 131.731 225.356 131.783C225.319 131.835 225.3 131.902 225.302 131.97C225.304 132.038 225.326 132.104 225.365 132.153C225.404 132.202 225.457 132.233 225.514 132.238H225.499Z" fill="#78AD04"/>
<path d="M228.427 111.477C228.477 111.478 228.526 111.459 228.565 111.423C228.605 111.386 228.634 111.335 228.647 111.277C228.661 111.219 228.658 111.158 228.639 111.102C228.621 111.046 228.588 110.999 228.545 110.968C227.636 110.27 226.773 109.489 225.964 108.631C225.942 108.607 225.915 108.588 225.887 108.576C225.859 108.565 225.828 108.56 225.799 108.562C225.769 108.565 225.739 108.575 225.713 108.591C225.686 108.608 225.662 108.631 225.643 108.659C225.623 108.686 225.608 108.718 225.599 108.752C225.589 108.786 225.585 108.822 225.587 108.858C225.589 108.894 225.597 108.93 225.611 108.962C225.624 108.994 225.643 109.023 225.666 109.047C226.49 109.928 227.371 110.728 228.301 111.439C228.339 111.467 228.383 111.48 228.427 111.477Z" fill="#78AD04"/>
<path d="M218.56 176.753C218.6 176.753 218.639 176.741 218.674 176.717C218.709 176.693 218.738 176.659 218.758 176.618C218.789 176.555 218.797 176.48 218.782 176.409C218.767 176.339 218.73 176.278 218.678 176.241C217.77 175.542 216.907 174.76 216.097 173.903C216.075 173.879 216.049 173.86 216.02 173.849C215.992 173.837 215.962 173.832 215.932 173.835C215.902 173.837 215.873 173.847 215.846 173.864C215.819 173.88 215.795 173.903 215.776 173.931C215.756 173.958 215.741 173.99 215.732 174.024C215.722 174.058 215.719 174.095 215.721 174.131C215.723 174.167 215.731 174.202 215.744 174.234C215.758 174.266 215.776 174.295 215.799 174.319C216.624 175.2 217.506 176.001 218.437 176.712C218.474 176.741 218.517 176.755 218.56 176.753Z" fill="#78AD04"/>
<path d="M212.579 178.928C212.029 181.421 211.596 183.963 211.679 186.546C211.768 189.362 212.45 192.087 213.256 194.708C213.408 195.207 212.748 195.422 212.596 194.927C211.768 192.232 211.085 189.438 210.993 186.546C210.907 183.887 211.355 181.262 211.917 178.703C211.945 178.603 212.004 178.521 212.081 178.472C212.158 178.423 212.248 178.411 212.332 178.438C212.416 178.466 212.489 178.531 212.534 178.621C212.58 178.711 212.596 178.818 212.579 178.921V178.928Z" fill="#78AD04"/>
<path d="M234.988 94.0419C234.778 92.12 234.474 90.1323 234.147 88.2035C234.117 88.0968 234.106 87.9838 234.113 87.8714C234.121 87.7591 234.147 87.6498 234.191 87.5502C234.235 87.4507 234.295 87.3629 234.367 87.2924C234.44 87.2218 234.524 87.1699 234.614 87.14C234.704 87.11 234.798 87.1025 234.89 87.1179C234.983 87.1334 235.072 87.1715 235.152 87.2299C235.231 87.2883 235.3 87.3658 235.355 87.4576C235.409 87.5494 235.447 87.6535 235.466 87.7637C235.819 89.8414 236.126 91.9365 236.355 94.0419C236.356 94.1517 236.34 94.2606 236.306 94.3624C236.272 94.4642 236.221 94.5569 236.158 94.6351C236.094 94.7133 236.018 94.7756 235.934 94.8182C235.851 94.8608 235.761 94.883 235.67 94.8834C235.49 94.8773 235.319 94.788 235.192 94.634C235.065 94.48 234.992 94.2731 234.988 94.0558V94.0419Z" fill="white"/>
<path d="M233.806 85.1174C233.719 84.5514 233.863 84.0445 234.128 83.9851C234.392 83.9257 234.677 84.3364 234.764 84.9024C234.851 85.4684 234.707 85.9754 234.443 86.0347C234.178 86.0941 233.893 85.6834 233.806 85.1174Z" fill="white"/>
<path d="M251.409 135.978C251.822 136.805 252.843 136.715 253.459 137.318C254.893 138.703 256.579 139.44 260.194 139.236C259.956 140.382 259.116 141.193 258.265 141.774C256.853 142.726 255.287 143.299 253.675 143.454C252.063 143.609 250.442 143.342 248.923 142.671" fill="#78AD04"/>
<path d="M250.597 135.43C250.672 136.75 251.948 137.404 252.395 138.609C253.413 141.38 255.088 143.547 259.587 146.037C258.701 147.249 257.261 147.599 255.925 147.661C253.715 147.75 251.515 147.261 249.476 146.23C247.436 145.198 245.604 143.648 244.106 141.684" fill="#83CE00"/>
<path d="M229.927 176.043C230.34 176.871 231.36 176.777 231.977 177.38C233.41 178.765 235.096 179.503 238.712 179.302C238.474 180.448 237.634 181.258 236.782 181.84C235.37 182.79 233.804 183.362 232.192 183.517C230.58 183.672 228.96 183.406 227.441 182.737" fill="#78AD04"/>
<path d="M229.115 175.496C229.19 176.812 230.466 177.466 230.913 178.672C231.931 181.442 233.605 183.61 238.104 186.099C237.218 187.311 235.779 187.661 234.443 187.724C232.234 187.81 230.036 187.322 227.999 186.291C225.961 185.26 224.13 183.711 222.632 181.75" fill="#83CE00"/>
<path d="M243.971 139.209C243.185 139.022 242.913 137.841 242.23 137.339C240.668 136.185 239.515 134.516 238.443 130.344C237.631 131.005 237.296 132.231 237.124 133.398C236.864 135.326 236.952 137.299 237.38 139.182C237.809 141.066 238.568 142.815 239.607 144.313" fill="#78AD04"/>
<path d="M244.673 139.942C243.621 140.31 242.666 139.08 241.585 138.983C239.091 138.769 236.826 137.598 233.356 133.349C232.714 134.765 232.932 136.521 233.336 138.059C234.021 140.598 235.151 142.929 236.649 144.893C238.147 146.858 239.977 148.41 242.015 149.445" fill="#83CE00"/>
<path d="M234.325 150.858C233.539 150.671 233.267 149.49 232.585 148.984C231.022 147.835 229.869 146.166 228.797 141.989C227.985 142.651 227.65 143.88 227.478 145.047C227.219 146.975 227.306 148.948 227.735 150.831C228.163 152.715 228.922 154.465 229.961 155.962" fill="#78AD04"/>
<path d="M235.028 151.592C233.975 151.956 233.02 150.73 231.942 150.633C229.448 150.415 227.18 149.248 223.71 144.999C223.068 146.415 223.286 148.167 223.693 149.708C224.379 152.248 225.51 154.58 227.009 156.545C228.508 158.51 230.341 160.062 232.381 161.094" fill="#83CE00"/>
<path d="M222.059 170.801C221.273 170.614 221.001 169.415 220.318 168.931C218.755 167.777 217.603 166.108 216.53 161.936C215.719 162.593 215.383 163.823 215.211 164.99C214.95 166.919 215.035 168.893 215.462 170.778C215.889 172.664 216.648 174.416 217.686 175.915" fill="#78AD04"/>
<path d="M222.753 171.535C221.7 171.902 220.745 170.672 219.667 170.575C217.173 170.357 214.905 169.19 211.435 164.941C210.793 166.357 211.011 168.113 211.415 169.651C212.1 172.19 213.23 174.521 214.728 176.485C216.226 178.45 218.056 180.002 220.094 181.037" fill="#83CE00"/>
<path d="M233.703 141.324C236.349 149.895 242.821 154.809 248.845 157.6C252.478 149.892 256.243 140.701 257.029 131.798C257.316 128.643 257.889 123.522 255.308 122.985C254.007 122.715 251.581 124.512 250.463 125.364C244.443 129.986 238.828 135.333 233.703 141.324Z" fill="#ADE701"/>
<path d="M221.864 157.621C225.511 166.493 233.465 170.977 239.793 173.204C241.7 170.433 243.521 167.573 245.204 164.602C246.5 162.313 247.724 159.979 248.845 157.593C242.824 154.795 236.35 149.881 233.703 141.317C229.387 146.343 225.427 151.797 221.864 157.621Z" fill="#83CE00"/>
<path d="M207.524 190.861L225.955 190.923C230.755 185.265 235.507 179.454 239.793 173.218C233.465 170.981 225.511 166.496 221.864 157.635C215.633 167.809 210.687 179.063 207.524 190.861Z" fill="#ADE701"/>
<path d="M214.509 191.2C214.539 191.201 214.568 191.193 214.595 191.177C214.622 191.162 214.645 191.139 214.664 191.11L254.121 128.235C254.139 128.21 254.153 128.182 254.161 128.151C254.169 128.12 254.172 128.088 254.17 128.055C254.167 128.023 254.159 127.992 254.146 127.963C254.133 127.935 254.115 127.91 254.093 127.891C254.072 127.871 254.048 127.857 254.021 127.849C253.995 127.842 253.968 127.841 253.942 127.846C253.915 127.852 253.89 127.864 253.868 127.882C253.845 127.9 253.826 127.923 253.812 127.951L214.357 190.826C214.339 190.851 214.325 190.88 214.317 190.912C214.309 190.944 214.307 190.977 214.31 191.01C214.314 191.043 214.323 191.074 214.338 191.102C214.352 191.13 214.371 191.154 214.394 191.173C214.429 191.196 214.469 191.206 214.509 191.2Z" fill="#78AD04"/>
<path d="M248.854 149.736C249.281 149.736 249.714 149.736 250.147 149.68C250.172 149.678 250.197 149.67 250.22 149.656C250.242 149.642 250.263 149.623 250.279 149.6C250.296 149.577 250.308 149.55 250.316 149.521C250.324 149.492 250.327 149.461 250.325 149.431C250.324 149.4 250.317 149.37 250.306 149.342C250.295 149.315 250.279 149.29 250.26 149.269C250.24 149.249 250.218 149.234 250.194 149.224C250.17 149.214 250.144 149.21 250.119 149.213C245.717 149.604 241.582 147.79 241.539 147.772C241.492 147.757 241.443 147.764 241.399 147.79C241.356 147.817 241.323 147.863 241.306 147.918C241.289 147.973 241.29 148.034 241.308 148.088C241.326 148.142 241.361 148.187 241.405 148.212C243.807 149.184 246.32 149.699 248.854 149.736Z" fill="#78AD04"/>
<path d="M240.246 149.864C240.274 149.864 240.301 149.856 240.326 149.843C240.352 149.829 240.374 149.809 240.392 149.784C240.411 149.761 240.426 149.733 240.435 149.702C240.444 149.672 240.448 149.639 240.447 149.607C240.445 149.574 240.438 149.542 240.426 149.513C240.413 149.484 240.396 149.459 240.375 149.438C238.8 147.665 237.514 145.551 236.585 143.205C236.564 143.148 236.525 143.104 236.477 143.082C236.429 143.06 236.376 143.062 236.329 143.087C236.283 143.112 236.246 143.159 236.228 143.217C236.21 143.274 236.211 143.339 236.232 143.395C237.6 147.09 240.094 149.777 240.123 149.805C240.157 149.841 240.201 149.862 240.246 149.864Z" fill="#78AD04"/>
<path d="M234.351 159.072C234.377 159.072 234.403 159.065 234.427 159.053C234.452 159.04 234.473 159.022 234.491 158.999C234.511 158.977 234.527 158.95 234.538 158.92C234.549 158.89 234.554 158.858 234.554 158.826C234.554 158.793 234.549 158.761 234.538 158.731C234.527 158.701 234.511 158.675 234.491 158.653C232.966 156.812 231.74 154.642 230.876 152.257C230.855 152.201 230.818 152.157 230.771 152.134C230.724 152.111 230.671 152.111 230.624 152.134C230.577 152.157 230.54 152.201 230.519 152.257C230.499 152.313 230.497 152.376 230.514 152.433C231.398 154.884 232.653 157.114 234.216 159.006C234.234 159.027 234.255 159.044 234.278 159.055C234.301 159.066 234.326 159.072 234.351 159.072Z" fill="#78AD04"/>
<path d="M225.044 173.934C225.086 173.934 225.127 173.917 225.161 173.886C225.181 173.867 225.199 173.844 225.211 173.817C225.224 173.79 225.232 173.761 225.236 173.73C225.239 173.7 225.237 173.668 225.23 173.639C225.223 173.609 225.211 173.581 225.195 173.557C223.92 171.455 222.982 169.084 222.428 166.565C222.423 166.535 222.413 166.507 222.398 166.482C222.383 166.457 222.365 166.435 222.343 166.419C222.321 166.403 222.297 166.392 222.272 166.388C222.247 166.383 222.221 166.385 222.196 166.392C222.172 166.399 222.148 166.412 222.128 166.43C222.107 166.448 222.089 166.47 222.076 166.496C222.063 166.522 222.054 166.551 222.05 166.582C222.046 166.612 222.047 166.643 222.053 166.673C222.618 169.255 223.58 171.687 224.889 173.841C224.907 173.87 224.93 173.894 224.957 173.91C224.984 173.926 225.013 173.935 225.044 173.934Z" fill="#78AD04"/>
<path d="M231.317 178.339C231.745 178.339 232.178 178.322 232.61 178.284C232.636 178.282 232.661 178.273 232.684 178.259C232.707 178.245 232.727 178.226 232.743 178.203C232.76 178.179 232.772 178.152 232.78 178.122C232.788 178.093 232.791 178.062 232.788 178.031C232.787 178 232.781 177.97 232.77 177.942C232.759 177.914 232.743 177.89 232.724 177.87C232.704 177.849 232.682 177.834 232.657 177.825C232.633 177.816 232.607 177.813 232.582 177.816C228.183 178.208 224.046 176.393 224.003 176.372C223.979 176.362 223.953 176.357 223.927 176.359C223.902 176.36 223.877 176.368 223.854 176.381C223.83 176.394 223.81 176.413 223.792 176.436C223.775 176.458 223.762 176.485 223.753 176.514C223.744 176.543 223.74 176.573 223.741 176.604C223.742 176.635 223.748 176.665 223.758 176.693C223.769 176.72 223.784 176.745 223.803 176.766C223.822 176.786 223.844 176.802 223.868 176.812C226.27 177.787 228.783 178.302 231.317 178.339Z" fill="#78AD04"/>
<path d="M236.246 165.7C236.294 165.697 236.34 165.673 236.374 165.632C236.408 165.591 236.429 165.536 236.432 165.478C236.435 165.42 236.42 165.363 236.39 165.318C236.36 165.272 236.317 165.242 236.269 165.232C234.632 164.998 233.019 164.558 231.458 163.92C231.411 163.904 231.361 163.911 231.318 163.938C231.275 163.965 231.241 164.01 231.224 164.065C231.208 164.12 231.208 164.181 231.227 164.235C231.245 164.29 231.279 164.334 231.323 164.359C232.913 165.011 234.556 165.459 236.223 165.696L236.246 165.7Z" fill="#78AD04"/>
<path d="M252.358 140.019C252.405 140.019 252.451 139.999 252.486 139.961C252.522 139.923 252.544 139.871 252.55 139.815C252.553 139.784 252.551 139.753 252.545 139.723C252.538 139.693 252.526 139.665 252.511 139.641C252.495 139.616 252.475 139.596 252.453 139.58C252.431 139.565 252.406 139.555 252.381 139.551C250.747 139.316 249.137 138.878 247.578 138.242C247.554 138.228 247.527 138.22 247.5 138.219C247.473 138.218 247.446 138.224 247.421 138.236C247.396 138.249 247.373 138.267 247.354 138.291C247.335 138.314 247.32 138.342 247.311 138.373C247.302 138.404 247.298 138.436 247.299 138.469C247.301 138.502 247.308 138.534 247.321 138.563C247.333 138.592 247.35 138.618 247.372 138.638C247.393 138.659 247.417 138.674 247.443 138.682C249.034 139.33 250.676 139.778 252.344 140.019H252.358Z" fill="#78AD04"/>
<path d="M241.843 156.831C241.891 156.828 241.937 156.804 241.971 156.763C242.006 156.722 242.026 156.668 242.029 156.61C242.032 156.552 242.017 156.494 241.987 156.449C241.957 156.403 241.914 156.373 241.866 156.363C240.228 156.129 238.615 155.689 237.052 155.051C237.028 155.034 237.001 155.023 236.972 155.02C236.944 155.016 236.916 155.02 236.889 155.031C236.863 155.042 236.838 155.06 236.818 155.084C236.797 155.107 236.782 155.136 236.771 155.168C236.761 155.2 236.757 155.234 236.758 155.268C236.76 155.302 236.768 155.335 236.781 155.365C236.794 155.395 236.813 155.421 236.835 155.442C236.858 155.462 236.884 155.477 236.912 155.484C238.503 156.136 240.146 156.584 241.815 156.821L241.843 156.831Z" fill="#78AD04"/>
<path d="M244.521 143.045C244.546 143.046 244.571 143.04 244.594 143.029C244.617 143.017 244.639 143.001 244.656 142.98C244.674 142.958 244.688 142.932 244.698 142.904C244.708 142.876 244.713 142.846 244.713 142.815C244.713 142.784 244.708 142.754 244.698 142.726C244.688 142.698 244.674 142.672 244.656 142.651C243.998 141.777 243.389 140.851 242.833 139.88C242.818 139.855 242.799 139.834 242.778 139.817C242.756 139.801 242.733 139.79 242.707 139.785C242.682 139.779 242.657 139.78 242.632 139.787C242.607 139.794 242.584 139.807 242.563 139.825C242.542 139.842 242.524 139.864 242.51 139.89C242.496 139.916 242.487 139.945 242.482 139.975C242.478 140.006 242.478 140.037 242.484 140.067C242.489 140.097 242.5 140.125 242.514 140.15C243.08 141.145 243.702 142.091 244.375 142.983C244.395 143.005 244.418 143.022 244.443 143.032C244.468 143.043 244.495 143.048 244.521 143.045Z" fill="#78AD04"/>
<path d="M220.158 181.896C220.182 181.896 220.207 181.89 220.23 181.879C220.253 181.868 220.275 181.851 220.292 181.83C220.312 181.808 220.328 181.781 220.339 181.751C220.35 181.721 220.355 181.689 220.355 181.657C220.355 181.624 220.35 181.592 220.339 181.562C220.328 181.532 220.312 181.506 220.292 181.483C219.632 180.611 219.022 179.686 218.466 178.713C218.434 178.67 218.39 178.642 218.343 178.635C218.296 178.628 218.248 178.642 218.208 178.675C218.169 178.708 218.141 178.757 218.13 178.814C218.119 178.87 218.125 178.929 218.147 178.98C218.714 179.973 219.336 180.92 220.008 181.812C220.027 181.838 220.05 181.859 220.076 181.873C220.101 181.888 220.129 181.895 220.158 181.896Z" fill="#78AD04"/>
<path d="M214.004 180.493C212.949 181.854 211.94 183.333 211.424 185.109C210.85 187.069 210.85 189.182 210.973 191.232C211.002 191.685 210.417 191.682 210.4 191.232C210.274 189.095 210.274 186.868 210.899 184.829C211.472 182.973 212.499 181.428 213.608 179.981C213.867 179.634 214.277 180.147 214.021 180.476L214.004 180.493Z" fill="#78AD04"/>
<path d="M254.646 134.603C254.781 133.883 254.896 133.155 254.996 132.425C255.096 131.694 255.182 130.988 255.248 130.347C255.254 130.165 255.316 129.993 255.423 129.865C255.529 129.736 255.671 129.661 255.822 129.654C256.108 129.654 256.447 129.966 256.395 130.347C256.235 131.902 256.037 133.463 255.753 134.98C255.734 135.07 255.7 135.155 255.653 135.228C255.606 135.302 255.548 135.364 255.481 135.41C255.414 135.456 255.34 135.485 255.264 135.495C255.187 135.506 255.11 135.498 255.036 135.472C254.889 135.419 254.765 135.299 254.689 135.138C254.613 134.976 254.591 134.786 254.629 134.606L254.646 134.603Z" fill="white"/>
<path d="M256.051 128.886C255.788 128.886 255.575 128.54 255.575 128.113C255.575 127.687 255.788 127.341 256.051 127.341C256.314 127.341 256.527 127.687 256.527 128.113C256.527 128.54 256.314 128.886 256.051 128.886Z" fill="white"/>
<path d="M106.034 162.372C106.607 165.616 112.187 172.296 113.956 174.855C116.657 178.758 119.367 181.781 123.198 183.887C128.814 186.993 134.896 188.684 141.072 188.858C147.247 189.031 153.387 187.682 159.117 184.894C170.225 179.468 179.252 167.812 182.446 153.863C183.441 149.41 183.923 144.811 183.88 140.199C183.868 137.502 183.696 134.811 183.366 132.144C182.612 136.254 181.723 140.313 180.347 144.178C178.225 150.03 175.064 155.248 171.087 159.462C167.11 163.675 162.415 166.781 157.334 168.56C154.088 169.668 150.724 170.212 147.361 170.551C134.92 171.798 118.016 166.621 106.034 162.372Z" fill="#CEB6B9"/>
<path d="M144.766 14.7207C146.657 13.8722 148.711 13.7031 150.68 14.2341C152.648 14.765 154.448 15.9732 155.86 17.7127C158.403 20.9678 159.315 25.6566 159.461 30.1272C159.608 34.5978 159.114 39.103 159.367 43.5805C159.688 49.3116 161.23 54.9804 160.729 60.6907C160.387 64.6038 159.103 68.3091 158.452 72.1564C157.815 75.932 157.79 79.8209 158.377 83.6082C158.951 87.2096 160.046 90.9634 159.048 94.4263C158.349 96.8503 156.683 98.7237 154.805 99.9253C152.927 101.127 150.833 101.726 148.757 102.284C146.681 102.841 144.379 103.374 142.346 102.457C140.118 101.449 138.618 98.9072 137.532 96.3551C136.472 93.8919 135.64 91.2952 135.051 88.6121C134.578 86.4512 134.26 84.2176 133.457 82.2022C132.852 80.682 131.989 79.3315 131.267 77.884C127.135 69.6354 127.843 59.1186 129.887 49.7999C131.932 40.4812 135.178 31.45 135.751 21.8335" fill="#02263C"/>
<path d="M137.784 69.535C136.132 67.6091 134.818 65.3013 133.92 62.749C133.022 60.1968 132.558 57.4523 132.557 54.6792C131.602 54.6792 130.771 55.4306 130.051 56.189C129.331 56.9474 128.597 57.7785 127.662 58.0209C126.728 58.2633 125.563 57.595 125.512 56.4453C125.681 58.523 125.799 60.8535 124.686 62.4603C123.943 63.5373 122.785 64.0706 121.945 65.0367C121.01 66.1137 120.537 67.6443 120.178 69.1437C119.112 73.6213 118.814 78.4935 120.098 82.8949C121.383 87.2962 124.448 91.0777 128.244 91.8984" fill="#FFB999"/>
<path d="M71.0033 119.47C71.4333 118.885 71.6889 118.143 71.7294 117.362C71.7699 116.582 71.5931 115.807 71.2269 115.162L71.2355 115.314C70.1259 113.043 67.8606 112.077 65.7875 111.28L62.017 109.836C61.4903 109.589 60.9329 109.451 60.3682 109.427C59.4363 109.466 58.6106 110.12 57.8364 110.74C55.4909 112.645 53.088 114.615 51.5282 117.448C51.4568 117.547 51.404 117.663 51.3733 117.789C51.3426 117.916 51.3348 118.048 51.3504 118.178C51.4708 118.646 52.03 118.59 52.4085 118.424C53.8108 117.812 55.1617 117.039 56.4428 116.118C57.4722 115.377 58.6507 114.504 59.7862 114.968C60.7095 115.346 61.2428 116.478 61.7646 117.475C62.2865 118.473 63.0263 119.511 64.0041 119.501L71.0033 119.47Z" fill="#FFB999"/>
<path d="M78.8942 121.08C77.3287 118.764 74.5932 117.884 72.1674 118.455C69.7416 119.027 67.614 120.879 66.014 123.158C66.9803 124.197 68.4054 124.27 69.7015 124.273L80.2906 124.325" fill="#E2ECFF"/>
<path d="M96.2762 126.24C97.2793 123.454 97.7375 120.427 97.6152 117.392C94.7249 118.531 91.5938 117.991 88.5859 117.441L82.0942 116.246C78.7193 115.626 74.9717 115.103 72.1588 117.441C73.6864 117.623 75.1693 118.166 76.5229 119.041C75.4498 119.661 74.563 120.669 73.9853 121.925C73.8291 122.196 73.7654 122.53 73.8075 122.857C73.9136 123.345 74.381 123.549 74.8025 123.646C78.3595 124.593 82.0078 124.943 85.644 124.685" fill="#FFB999"/>
<path d="M83.2784 227.294C82.5788 230.757 84.2505 234.476 83.4075 237.887C82.6792 240.834 80.2534 242.718 77.8161 243.667C75.0348 244.758 72.0814 244.969 69.1452 244.997C63.6829 245.052 57.8191 244.304 53.6414 240.079C53.1568 239.588 52.6751 239.006 52.5489 238.258C52.2622 236.627 53.7188 235.391 54.9719 234.677C58.4945 232.678 62.1367 231.002 65.8678 229.663C67.3302 229.14 68.8097 228.666 70.1861 227.876C71.1897 227.298 72.1445 226.55 73.2312 226.266C74.3179 225.982 75.6197 226.29 76.2075 227.426C77.1595 229.272 75.7143 231.987 76.7552 233.763C77.1589 234.371 77.726 234.788 78.3581 234.944C80.0527 235.477 81.2512 234.334 82.5358 232.904" fill="#FE6F5D"/>
<path d="M83.6282 230.504C83.5071 231.371 83.2191 232.192 82.7873 232.9C82.3555 233.608 81.792 234.183 81.1422 234.58C80.4992 234.95 79.7904 235.122 79.0791 235.08C78.3677 235.039 77.6758 234.787 77.0648 234.345C76.8127 234.187 76.591 233.967 76.4146 233.698C76.2381 233.429 76.1109 233.119 76.0412 232.786C75.9523 232.128 76.2075 231.488 76.3595 230.851C76.6241 229.746 76.5909 228.568 76.2648 227.488C76.8756 226.705 77.7759 226.449 78.6046 226.103C79.4333 225.757 80.325 225.241 80.6576 224.233" fill="#FFB999"/>
<path d="M117.862 132.629L117.466 136.746L131.892 140.68C125.082 136.919 117.406 136.21 109.916 136.081C106.103 136.016 102.22 136.081 98.5901 137.505C95.1206 138.848 91.8662 141.577 90.2748 145.511L90.2318 145.719L88.2533 157.105C86.9401 164.686 85.6249 172.268 84.3078 179.849C81.5953 195.491 78.8598 211.178 77.7731 227.104C79.2291 228.921 81.0909 230.189 83.1322 230.754L83.5881 230.882C92.1443 209.779 100.403 188.507 108.365 167.067L103.984 165.516C116.009 169.133 128.284 171.404 140.654 172.3C143.149 172.483 145.681 172.605 148.109 171.954C154.974 170.163 160.124 162.136 160.637 153.676C161.15 145.217 157.437 136.812 151.808 131.742" fill="#4092C1"/>
<path d="M138.16 77.0944C139.357 75.5551 140.726 74.2231 142.226 73.1363C143.84 71.9659 145.836 71.0828 147.573 71.9486C149.165 72.745 150.076 74.7951 150.518 76.7966C151.306 80.4499 150.966 84.3244 149.563 87.6978C148.15 91.0603 145.778 93.6679 143.416 96.1334C137.872 101.93 132.1 107.395 126.1 112.527C125.131 113.403 124.102 114.179 123.026 114.847C121.77 115.581 120.25 116.547 118.905 116.994C113.609 118.757 108.583 121.44 103.284 123.199C101.053 123.944 98.6733 124.962 96.454 124.166C95.8174 122.625 95.654 119.376 95.0203 117.839C103.605 112.845 113.535 109.971 120.583 102.225C122.383 100.244 123.9 97.9238 125.409 95.614C130.366 88.0268 135.034 81.8282 139.989 74.241" fill="#F9EDED"/>
<path d="M146.326 89.1384C145.532 90.534 145.009 92.1287 144.798 93.8029C144.766 93.9353 144.693 94.0475 144.594 94.1154C144.495 94.1834 144.377 94.2017 144.267 94.1665C144.161 94.1235 144.072 94.0334 144.019 93.9145C143.966 93.7956 143.952 93.6566 143.98 93.5259C144.207 91.7624 144.758 90.083 145.595 88.612C145.623 88.5531 145.661 88.5016 145.706 88.4604C145.751 88.4192 145.803 88.3892 145.858 88.372C145.912 88.3548 145.969 88.3508 146.025 88.3602C146.081 88.3696 146.135 88.3922 146.184 88.4267C146.233 88.4613 146.275 88.5071 146.309 88.5616C146.344 88.6161 146.368 88.6781 146.383 88.7442C146.397 88.8103 146.4 88.8791 146.393 88.9467C146.385 89.0144 146.366 89.0795 146.337 89.1384H146.326Z" fill="#F9EDED"/>
<path d="M132.075 16.4627L127.487 15.3026C126.019 14.9321 124.465 14.565 123.043 15.1399C123.636 13.9971 124.672 13.3115 125.698 12.7782C127.934 11.6128 130.325 10.9408 132.758 10.7939" fill="#02263C"/>
<path opacity="0.4" d="M141.471 73.4757L131.525 88.4527C129.936 90.8421 128.37 93.2385 126.759 95.6175C125.325 97.7368 123.874 99.8284 122.283 101.771C120.526 103.962 118.541 105.868 116.376 107.44C116.328 107.466 116.273 107.47 116.222 107.45C116.171 107.431 116.129 107.389 116.102 107.334C116.075 107.278 116.066 107.212 116.077 107.15C116.088 107.087 116.118 107.031 116.161 106.993C120.09 104.223 123.175 100.095 126.031 95.8807C129.254 91.1261 132.405 86.3023 135.588 81.5096L141.168 73.1052C141.34 72.8455 141.643 73.216 141.471 73.4757Z" fill="#CEB6B9"/>
<path opacity="0.45" d="M140.565 100.019C134.294 105.365 128.583 111.942 121.5 115.754C119.583 116.804 117.572 117.586 115.508 118.085C115.238 118.15 115.12 117.648 115.393 117.586C122.974 115.799 129.156 109.85 135.132 104.289C136.852 102.685 138.573 101.092 140.347 99.579C140.574 99.3851 140.789 99.8353 140.565 100.026V100.019Z" fill="#CEB6B9"/>
<path d="M145.916 146.1C141.592 147.36 136.832 145.341 133.933 141.317C133.109 140.175 132.444 138.878 131.966 137.477C131.757 136.861 132.588 136.591 132.798 137.2C134.349 141.754 138.22 144.936 142.24 145.39C143.392 145.524 144.555 145.427 145.681 145.102C146.22 144.947 146.449 145.947 145.91 146.107L145.916 146.1Z" fill="#74CFF7"/>
<path d="M116.032 135.874L127.453 137.879C128.001 137.972 127.768 138.977 127.224 138.88L115.803 136.875C115.258 136.778 115.49 135.777 116.032 135.874Z" fill="#74CFF7"/>
<path d="M203.621 96.7048C202.096 98.5263 202.733 101.331 203.295 103.485C203.966 106.055 204.292 108.621 203.997 111.308C203.963 111.637 203.53 111.654 203.567 111.308C203.731 109.869 203.731 108.411 203.567 106.972C203.362 105.58 203.069 104.21 202.69 102.872C202.159 100.725 201.864 98.0761 203.32 96.3378C203.518 96.1023 203.822 96.4694 203.624 96.7048H203.621Z" fill="white"/>
<path d="M108.202 167.57L103.327 165.738C102.802 165.54 103.04 164.536 103.556 164.734L108.431 166.565C108.958 166.763 108.735 167.764 108.202 167.566V167.57Z" fill="#74CFF7"/>
<path d="M104.752 169.869C104.807 169.869 104.861 169.85 104.907 169.813C104.954 169.777 104.99 169.725 105.013 169.665L105.432 168.564C105.447 168.522 105.456 168.477 105.457 168.432C105.459 168.387 105.453 168.341 105.439 168.299C105.426 168.256 105.406 168.217 105.381 168.184C105.355 168.15 105.324 168.124 105.29 168.105C105.255 168.086 105.218 168.075 105.181 168.074C105.143 168.072 105.106 168.079 105.07 168.095C105.035 168.111 105.003 168.135 104.975 168.166C104.948 168.197 104.925 168.235 104.91 168.276L104.494 169.377C104.474 169.43 104.465 169.488 104.468 169.546C104.471 169.603 104.486 169.659 104.512 169.708C104.538 169.757 104.573 169.797 104.615 169.826C104.657 169.854 104.704 169.869 104.752 169.869Z" fill="#74CFF7"/>
<path d="M84.6376 223.066C84.6927 223.066 84.7467 223.047 84.793 223.01C84.8392 222.974 84.8759 222.922 84.8985 222.862L85.7358 220.645C85.7673 220.562 85.7701 220.467 85.7435 220.381C85.7169 220.294 85.663 220.225 85.5938 220.187C85.5246 220.148 85.4457 220.145 85.3745 220.177C85.3032 220.209 85.2455 220.274 85.2139 220.358L84.3767 222.574C84.3608 222.616 84.3518 222.66 84.3502 222.706C84.3487 222.752 84.3546 222.797 84.3677 222.84C84.3807 222.883 84.4007 222.922 84.4263 222.955C84.452 222.989 84.4828 223.016 84.5172 223.035C84.5551 223.055 84.5961 223.066 84.6376 223.066ZM86.3121 218.63C86.367 218.63 86.4207 218.611 86.4669 218.576C86.5132 218.54 86.55 218.489 86.573 218.429L87.4132 216.213C87.4288 216.172 87.4375 216.127 87.4388 216.081C87.4402 216.036 87.4341 215.991 87.4209 215.948C87.4077 215.905 87.3877 215.866 87.362 215.833C87.3364 215.8 87.3055 215.773 87.2712 215.754C87.237 215.735 87.2 215.725 87.1623 215.723C87.1247 215.721 87.0872 215.729 87.0519 215.745C87.0166 215.761 86.9843 215.785 86.9567 215.816C86.9292 215.847 86.9069 215.884 86.8913 215.925L86.0541 218.142C86.0228 218.225 86.0201 218.32 86.0464 218.405C86.0727 218.491 86.126 218.56 86.1945 218.599C86.231 218.621 86.2714 218.631 86.3121 218.63ZM87.9895 214.198C88.0444 214.198 88.0981 214.179 88.1443 214.143C88.1906 214.108 88.2274 214.057 88.2505 213.997L89.0877 211.78C89.1036 211.739 89.1126 211.694 89.1141 211.649C89.1157 211.603 89.1097 211.558 89.0967 211.515C89.0836 211.472 89.0637 211.433 89.0381 211.399C89.0124 211.366 88.9815 211.339 88.9472 211.32C88.878 211.282 88.7993 211.28 88.7284 211.312C88.6574 211.344 88.6 211.41 88.5687 211.493L87.7286 213.709C87.6976 213.793 87.6952 213.888 87.7221 213.974C87.749 214.059 87.8029 214.129 87.872 214.166C87.9089 214.187 87.9489 214.197 87.9895 214.198ZM89.6669 209.765C89.7218 209.765 89.7755 209.746 89.8217 209.711C89.868 209.675 89.9048 209.624 89.9278 209.564L90.7651 207.348C90.7967 207.264 90.7994 207.169 90.7728 207.083C90.7462 206.997 90.6924 206.927 90.6232 206.889C90.554 206.851 90.4751 206.848 90.4038 206.88C90.3326 206.912 90.2748 206.977 90.2433 207.06L89.406 209.277C89.3748 209.36 89.372 209.455 89.3983 209.54C89.4247 209.626 89.4779 209.695 89.5465 209.734C89.5844 209.754 89.6254 209.765 89.6669 209.765ZM91.3415 205.35C91.3963 205.35 91.45 205.331 91.4963 205.296C91.5425 205.26 91.5794 205.209 91.6024 205.149L92.454 202.926C92.4855 202.842 92.4883 202.747 92.4617 202.661C92.4351 202.575 92.3813 202.505 92.3121 202.467C92.2429 202.429 92.1639 202.425 92.0927 202.458C92.0215 202.49 91.9637 202.555 91.9321 202.638L91.092 204.855C91.0762 204.896 91.0674 204.941 91.066 204.987C91.0647 205.033 91.0708 205.078 91.0842 205.121C91.0975 205.164 91.1177 205.203 91.1437 205.236C91.1696 205.27 91.2008 205.296 91.2354 205.315C91.2685 205.335 91.3046 205.347 91.3415 205.35ZM93.0275 200.9C93.0826 200.9 93.1366 200.881 93.1829 200.844C93.2291 200.808 93.2658 200.756 93.2884 200.696L94.1257 198.479C94.1572 198.396 94.16 198.301 94.1334 198.215C94.1068 198.128 94.0529 198.059 93.9837 198.021C93.9145 197.982 93.8356 197.979 93.7644 198.011C93.6931 198.043 93.6354 198.108 93.6038 198.192L92.7665 200.408C92.7507 200.45 92.7419 200.495 92.7406 200.541C92.7392 200.586 92.7454 200.632 92.7587 200.675C92.772 200.717 92.7923 200.757 92.8182 200.79C92.8442 200.823 92.8753 200.85 92.9099 200.869C92.9468 200.889 92.9869 200.9 93.0275 200.9ZM94.7049 196.467C94.76 196.467 94.814 196.448 94.8602 196.412C94.9065 196.376 94.9432 196.324 94.9658 196.263L95.8031 194.047C95.8346 193.963 95.8374 193.868 95.8108 193.782C95.7842 193.696 95.7303 193.626 95.6611 193.588C95.5919 193.55 95.513 193.547 95.4418 193.579C95.3705 193.611 95.3128 193.676 95.2812 193.76L94.4439 195.976C94.428 196.017 94.419 196.062 94.4175 196.107C94.416 196.153 94.4219 196.198 94.435 196.241C94.448 196.284 94.4679 196.323 94.4936 196.357C94.5192 196.39 94.5501 196.417 94.5844 196.436C94.6197 196.455 94.6577 196.466 94.6963 196.467H94.7049ZM96.3794 192.035C96.4346 192.035 96.4885 192.015 96.5348 191.979C96.5811 191.943 96.6177 191.891 96.6403 191.831L97.4805 189.614C97.4963 189.573 97.5051 189.528 97.5064 189.482C97.5078 189.436 97.5016 189.391 97.4883 189.348C97.475 189.305 97.4547 189.266 97.4288 189.233C97.4028 189.199 97.3717 189.173 97.3371 189.154C97.2679 189.116 97.1892 189.114 97.1182 189.146C97.0473 189.178 96.9899 189.244 96.9586 189.327L96.1185 191.543C96.0874 191.627 96.0851 191.722 96.112 191.808C96.1388 191.893 96.1927 191.963 96.2618 192C96.2955 192.022 96.3327 192.034 96.3708 192.035H96.3794ZM98.0568 187.599C98.1116 187.599 98.1654 187.58 98.2116 187.545C98.2579 187.509 98.2947 187.458 98.3177 187.398L99.155 185.182C99.1866 185.098 99.1893 185.003 99.1627 184.917C99.1361 184.831 99.0823 184.761 99.0131 184.723C98.9439 184.685 98.865 184.682 98.7937 184.714C98.7225 184.746 98.6647 184.811 98.6331 184.894L97.7959 187.111C97.7647 187.194 97.7619 187.289 97.7882 187.374C97.8145 187.46 97.8678 187.529 97.9364 187.568C97.9717 187.587 98.0096 187.597 98.0482 187.599H98.0568ZM99.7342 183.167C99.7891 183.167 99.8428 183.148 99.889 183.112C99.9353 183.077 99.9721 183.026 99.9951 182.966L100.832 180.749C100.864 180.666 100.867 180.57 100.841 180.484C100.815 180.398 100.761 180.327 100.692 180.289C100.623 180.25 100.544 180.246 100.472 180.278C100.401 180.31 100.342 180.375 100.311 180.459L99.4733 182.678C99.4421 182.761 99.4393 182.856 99.4656 182.942C99.4919 183.027 99.5452 183.097 99.6138 183.135C99.6491 183.154 99.687 183.165 99.7256 183.167H99.7342ZM101.409 178.734C101.464 178.734 101.517 178.715 101.564 178.68C101.61 178.644 101.647 178.593 101.67 178.533L102.49 176.313C102.51 176.272 102.522 176.225 102.527 176.177C102.531 176.13 102.527 176.081 102.515 176.035C102.502 175.989 102.483 175.947 102.456 175.911C102.43 175.875 102.397 175.846 102.361 175.826C102.325 175.805 102.285 175.795 102.245 175.794C102.205 175.793 102.166 175.803 102.129 175.822C102.092 175.841 102.059 175.868 102.032 175.904C102.005 175.939 101.984 175.981 101.971 176.026L101.131 178.242C101.115 178.284 101.106 178.329 101.105 178.375C101.103 178.42 101.109 178.466 101.123 178.509C101.136 178.551 101.156 178.591 101.182 178.624C101.208 178.657 101.239 178.684 101.274 178.703C101.314 178.725 101.357 178.735 101.4 178.734H101.409ZM103.063 174.301C103.118 174.301 103.172 174.282 103.219 174.246C103.265 174.21 103.302 174.158 103.324 174.097L104.161 171.881C104.177 171.84 104.186 171.795 104.187 171.749C104.188 171.704 104.182 171.659 104.169 171.616C104.156 171.573 104.136 171.534 104.11 171.501C104.085 171.468 104.054 171.441 104.019 171.422C103.985 171.403 103.948 171.393 103.911 171.391C103.873 171.389 103.835 171.397 103.8 171.413C103.765 171.429 103.732 171.453 103.705 171.484C103.677 171.515 103.655 171.552 103.64 171.594L102.802 173.81C102.786 173.851 102.777 173.896 102.776 173.941C102.774 173.987 102.78 174.032 102.793 174.075C102.806 174.118 102.826 174.157 102.852 174.191C102.878 174.224 102.908 174.251 102.943 174.27C102.981 174.291 103.022 174.301 103.063 174.301Z" fill="#74CFF7"/>
<path d="M83.3816 226.384C83.4365 226.384 83.4902 226.365 83.5365 226.329C83.5827 226.294 83.6196 226.243 83.6426 226.183L84.0583 225.088C84.0819 225.007 84.0795 224.918 84.0515 224.839C84.0236 224.759 83.9721 224.695 83.9072 224.659C83.8423 224.624 83.7686 224.618 83.7006 224.644C83.6326 224.67 83.5751 224.726 83.5393 224.801L83.1207 225.906C83.0897 225.989 83.0874 226.084 83.1142 226.17C83.1411 226.256 83.195 226.325 83.2641 226.363C83.3017 226.38 83.3417 226.387 83.3816 226.384Z" fill="#74CFF7"/>
<path d="M232.421 190.404H190.845C190.775 190.403 190.706 190.421 190.642 190.456C190.579 190.491 190.522 190.543 190.477 190.608C190.432 190.672 190.4 190.748 190.382 190.83C190.364 190.911 190.362 190.996 190.374 191.079L197.913 242.531C197.932 242.664 197.99 242.785 198.076 242.872C198.162 242.959 198.271 243.006 198.383 243.006H224.877C224.989 243.005 225.097 242.958 225.183 242.871C225.269 242.784 225.327 242.664 225.347 242.531L232.891 191.079C232.904 190.996 232.901 190.911 232.883 190.83C232.865 190.749 232.832 190.673 232.787 190.609C232.742 190.545 232.686 190.493 232.623 190.457C232.56 190.422 232.491 190.404 232.421 190.404Z" fill="#FE6F5D"/>
<path d="M108.247 83.7087C107.048 92.7314 106.978 101.921 108.038 110.969L108.356 113.68L112.675 126.839L149.297 128.207L148.267 125.582C145.664 118.919 142.461 111.481 143.355 104.195L147.226 72.6828C147.258 72.4341 147.246 72.1801 147.191 71.9374C147.136 71.6946 147.04 71.4684 146.908 71.2734C145.699 69.482 144.188 68.0222 142.475 66.991C140.763 65.9599 138.888 65.381 136.975 65.293L136.542 65.2757C136.155 65.2551 135.777 65.4179 135.487 65.7293L123.766 78.3446L120.841 67.201C120.788 66.9967 120.694 66.8113 120.567 66.6613C120.441 66.5113 120.286 66.4013 120.115 66.341C119.945 66.2807 119.766 66.272 119.592 66.3157C119.418 66.3595 119.256 66.4542 119.12 66.5916L113.386 72.3746L111.637 74.1303L111.605 74.1684C109.973 76.1664 108.906 78.7357 108.554 81.5097L108.247 83.7087Z" fill="#F9EDED"/>
<path d="M0.661224 124.325H215.292V135.94H0.661224V124.325Z" fill="#F6C375"/>
<path d="M0.661224 130.132H215.292V135.94H0.661224V130.132Z" fill="#F2A43D"/>
<path opacity="0.4" d="M140.304 74.106L130.358 89.083C128.772 91.4724 127.203 93.8722 125.592 96.2512C124.158 98.3705 122.707 100.462 121.116 102.401C119.36 104.595 117.374 106.502 115.209 108.074C115.16 108.108 115.101 108.117 115.046 108.099C114.991 108.082 114.944 108.038 114.915 107.978C114.887 107.919 114.879 107.848 114.894 107.781C114.909 107.715 114.945 107.658 114.994 107.623C118.923 104.853 122.008 100.725 124.864 96.5144C128.087 91.7598 131.238 86.9326 134.421 82.1399L140.001 73.7251C140.173 73.4654 140.476 73.8324 140.304 74.0921V74.106Z" fill="#CEB6B9"/>
<path opacity="0.45" d="M139.398 100.639C133.127 105.985 127.416 112.558 120.333 116.371C118.415 117.418 116.405 118.198 114.341 118.698C114.071 118.76 113.956 118.261 114.226 118.196C121.807 116.409 127.989 110.46 133.965 104.902C135.685 103.298 137.406 101.702 139.18 100.192C139.407 99.9981 139.622 100.448 139.398 100.639Z" fill="#CEB6B9"/>
<path d="M20.7642 36.8792L19.8554 34.8037L27.2975 30.0509L28.2063 32.1265L20.7642 36.8792Z" fill="#E2ECFF"/>
<path d="M20.8574 41.7688L20.7495 39.4246L29.1551 38.8606L29.263 41.2048L20.8574 41.7688Z" fill="#E2ECFF"/>
<path d="M28.418 47.393L27.8972 49.655L19.7864 46.9312L20.3072 44.6691L28.418 47.393Z" fill="#E2ECFF"/>
<path d="M205.887 239.66H225.671C225.709 239.66 225.746 239.642 225.773 239.61C225.8 239.577 225.815 239.533 225.815 239.487C225.815 239.441 225.8 239.397 225.773 239.365C225.746 239.332 225.709 239.314 225.671 239.314H205.887C205.849 239.314 205.812 239.332 205.785 239.365C205.758 239.397 205.743 239.441 205.743 239.487C205.743 239.533 205.758 239.577 205.785 239.61C205.812 239.642 205.849 239.66 205.887 239.66Z" fill="#E23C30"/>
<path d="M207.667 237.16H226.044C226.082 237.16 226.119 237.142 226.146 237.109C226.172 237.077 226.188 237.033 226.188 236.987C226.188 236.941 226.172 236.897 226.146 236.864C226.119 236.832 226.082 236.814 226.044 236.814H207.667C207.629 236.814 207.593 236.832 207.566 236.864C207.539 236.897 207.524 236.941 207.524 236.987C207.524 237.033 207.539 237.077 207.566 237.109C207.593 237.142 207.629 237.16 207.667 237.16Z" fill="#E23C30"/>
<path d="M201.973 111.107H204.969V116.582H201.973V111.107Z" fill="white"/>
<path d="M124.729 62.332C128.588 60.3131 131.037 57.5601 132.528 55.2746C132.528 55.2434 132.528 55.2157 132.528 55.1846C131.57 56.033 130.598 56.8156 129.638 57.5186C128.898 58.0657 128.104 58.5921 127.235 58.6405C126.714 58.6593 126.198 58.5288 125.727 58.2596L125.624 58.3427C125.649 59.7937 125.477 61.2169 124.743 62.3216L124.729 62.332Z" fill="#FC8C60"/>
<path d="M125.552 8.17928C124.34 7.4794 123.012 7.12653 121.669 7.14815C120.326 7.16978 119.006 7.5653 117.81 8.30395C119.502 8.35589 121.251 8.84762 122.561 10.1254" fill="#02263C"/>
<path d="M141.732 39.3109C141.483 47.1994 135.284 53.7616 129.646 57.7543C128.895 58.2842 128.095 58.7932 127.226 58.8278C125.893 58.8728 124.729 57.789 123.757 56.6774C119.625 51.9886 117.647 45.8697 116.609 39.1378C115.571 32.4059 116.752 25.0854 120.267 19.7144C121.776 17.4081 123.745 15.4446 126.082 14.6343C127.702 14.0699 129.42 14.0803 131.103 14.2396C133.253 14.4405 135.384 14.8704 137.471 15.5243C139.135 16.0472 140.806 16.7363 142.122 18.0695C143.438 19.4027 144.353 21.4943 144.043 23.5478C143.734 25.6013 141.976 27.2981 140.316 26.7649" fill="#FFB999"/>
<path d="M123.966 45.6028C123.507 45.5855 122.908 45.5197 122.533 45.1457C122.074 44.6817 122.409 44.0757 122.627 43.577C123.163 42.3272 123.485 40.9599 123.573 39.5566C123.596 39.2103 124.035 39.2103 124.012 39.5566C123.942 40.7219 123.718 41.8663 123.35 42.9468C123.261 43.203 123.166 43.4593 123.063 43.7086C122.915 43.9553 122.806 44.2321 122.739 44.5258C122.722 45.0176 123.7 45.0626 123.958 45.073C124.012 45.0804 124.061 45.1115 124.097 45.1604C124.133 45.2092 124.153 45.2724 124.153 45.3379C124.153 45.4034 124.133 45.4665 124.097 45.5154C124.061 45.5642 124.012 45.5954 123.958 45.6028H123.966Z" fill="#EA754B"/>
<path d="M125.795 37.3706C125.78 36.1238 126.356 35.1028 127.081 35.0901C127.807 35.0774 128.407 36.0779 128.422 37.3247C128.437 38.5715 127.861 39.5926 127.136 39.6052C126.41 39.6179 125.81 38.6175 125.795 37.3706Z" fill="#021B28"/>
<path d="M119.229 37.4839C119.214 36.2371 119.789 35.2161 120.515 35.2034C121.24 35.1907 121.84 36.1912 121.855 37.438C121.87 38.6848 121.294 39.7058 120.569 39.7185C119.844 39.7312 119.244 38.7307 119.229 37.4839Z" fill="#021B28"/>
<path d="M115.763 34.6671C116.505 33.7139 117.445 33.0184 118.486 32.653C119.526 32.2876 120.628 32.2656 121.678 32.5893L121.836 31.8379C120.674 31.4792 119.453 31.5047 118.302 31.9117C117.15 32.3186 116.111 33.0921 115.292 34.1511L115.763 34.6671Z" fill="#021B28"/>
<path d="M131.912 34.196L132.359 33.635C131.691 32.859 130.9 32.2547 130.034 31.8586C128.653 31.2389 127.142 31.183 125.733 31.6993L125.919 32.4438C126.956 32.061 128.06 32.022 129.114 32.3309C130.169 32.6398 131.135 33.2851 131.912 34.1995V34.196Z" fill="#021B28"/>
<path d="M120.001 36.0557C119.806 36.1568 119.597 36.2089 119.386 36.2089C119.174 36.2089 118.965 36.1568 118.771 36.0557C118.509 35.9355 118.268 35.7556 118.062 35.5259C118.053 35.6756 118.091 35.8238 118.168 35.9414C118.566 36.6758 119.159 37.2253 119.849 37.4997" fill="#021B28"/>
<path d="M120.689 35.782C120.479 35.813 120.266 35.7918 120.064 35.7197C119.861 35.6477 119.673 35.5263 119.51 35.363C119.289 35.1563 119.101 34.9014 118.957 34.6116C118.911 34.7493 118.911 34.9032 118.957 35.041C119.162 35.8835 119.599 36.6164 120.196 37.1187" fill="#021B28"/>
<path d="M128.009 35.7823C128.211 35.8596 128.423 35.887 128.633 35.8626C128.844 35.8382 129.048 35.7625 129.234 35.6403C129.485 35.489 129.71 35.2809 129.896 35.0273C129.916 35.1751 129.891 35.3269 129.824 35.4533C129.489 36.2321 128.944 36.85 128.279 37.2055" fill="#021B28"/>
<path d="M127.295 35.5916C127.508 35.5973 127.719 35.5509 127.916 35.455C128.113 35.3592 128.292 35.216 128.442 35.034C128.646 34.8011 128.811 34.5238 128.93 34.2168C128.986 34.3495 128.998 34.503 128.964 34.6462C128.829 35.5096 128.453 36.2914 127.9 36.8624" fill="#021B28"/>
<path d="M121.128 46.9708C121.107 49.1455 122.679 51.3687 124.591 51.3929C126.504 51.4172 128.032 49.239 128.058 47.0643C128.058 47.0124 128.058 46.957 128.058 46.905C126.977 47.5397 125.788 47.8617 124.586 47.8455C123.385 47.8292 122.202 47.4752 121.133 46.8115C121.128 46.8635 121.128 46.9189 121.128 46.9708Z" fill="white"/>
<path d="M118.203 26.8028C118.254 26.8014 118.305 26.7932 118.355 26.7786C120.018 26.2245 120.935 24.3892 121.331 23.3434C121.395 23.1763 121.401 22.9855 121.348 22.8131C121.295 22.6406 121.187 22.5007 121.049 22.424C120.91 22.3473 120.752 22.3402 120.61 22.4041C120.467 22.4681 120.351 22.5979 120.287 22.7651C119.754 24.171 118.94 25.1476 118.051 25.4419C117.917 25.486 117.8 25.5874 117.723 25.7274C117.647 25.8674 117.614 26.0364 117.633 26.2028C117.652 26.3693 117.72 26.5219 117.824 26.6323C117.929 26.7427 118.064 26.8033 118.203 26.8028Z" fill="#FC8C60"/>
<path d="M140.253 32.1772C140.328 32.1838 140.404 32.1724 140.475 32.1437C140.547 32.115 140.613 32.0695 140.671 32.0099C140.786 31.8894 140.857 31.7185 140.868 31.5348C140.879 31.3512 140.829 31.1697 140.729 31.0304C140.63 30.8911 140.488 30.8054 140.336 30.792L138.985 30.5531C136.038 30.0094 132.614 29.1679 129.609 27.0902C126.857 25.1925 124.677 21.6569 123.777 17.6365C123.73 17.4719 123.633 17.3347 123.506 17.2524C123.379 17.1701 123.231 17.1486 123.091 17.1923C122.952 17.236 122.831 17.3416 122.753 17.4881C122.675 17.6346 122.645 17.8112 122.67 17.9828C123.648 22.353 126.028 26.2002 129.039 28.2814C132.21 30.47 135.76 31.3426 138.816 31.9071L140.17 32.146L140.253 32.1772Z" fill="#FC8C60"/>
<path d="M146.151 32.011C141.437 31.7271 133.821 30.7332 129.807 27.7066C126.191 24.964 124.502 21.3245 123.355 17.73C122.209 14.1355 125.687 8.14126 128.322 5.95617C129.429 5.04197 130.77 4.62642 132.101 4.42557C138.848 3.42826 145.922 8.09278 148.861 15.493" fill="#02263C"/>
<path d="M141.95 43.6705C139.843 43.6705 138.134 41.2767 138.134 38.3238C138.134 35.3709 139.843 32.9771 141.95 32.9771C144.058 32.9771 145.767 35.3709 145.767 38.3238C145.767 41.2767 144.058 43.6705 141.95 43.6705Z" fill="#FFB999"/>
<path d="M143.16 40.4847C143.19 40.485 143.219 40.4737 143.244 40.4525C143.268 40.4313 143.286 40.4014 143.295 40.367C143.496 39.6278 143.536 38.8384 143.409 38.0755C143.282 37.3126 142.994 36.6024 142.573 36.0141C142.546 35.9824 142.51 35.9646 142.472 35.9646C142.435 35.9646 142.399 35.9824 142.372 36.0141C142.358 36.0299 142.348 36.0488 142.341 36.0696C142.333 36.0904 142.33 36.1127 142.33 36.1353C142.33 36.1579 142.333 36.1802 142.341 36.201C142.348 36.2218 142.358 36.2407 142.372 36.2565C142.761 36.7993 143.027 37.4546 143.144 38.1586C143.261 38.8626 143.225 39.5912 143.04 40.2735C143.034 40.2948 143.031 40.3175 143.032 40.3401C143.033 40.3627 143.038 40.3849 143.046 40.4052C143.055 40.4255 143.066 40.4436 143.08 40.4585C143.094 40.4733 143.111 40.4846 143.129 40.4916C143.14 40.4909 143.15 40.4886 143.16 40.4847Z" fill="#EA754B"/>
<path d="M141.899 38.9265C141.933 38.9264 141.967 38.9117 141.993 38.885C142.395 38.4764 142.879 38.2236 143.16 38.2686C143.198 38.2745 143.236 38.2621 143.266 38.2342C143.296 38.2063 143.316 38.1651 143.321 38.1197C143.324 38.0971 143.323 38.0741 143.318 38.052C143.313 38.0299 143.305 38.0091 143.293 37.991C143.282 37.9729 143.267 37.9578 143.251 37.9466C143.235 37.9354 143.216 37.9283 143.198 37.9258C142.745 37.8496 142.168 38.272 141.807 38.6183C141.778 38.6485 141.76 38.6911 141.757 38.737C141.754 38.783 141.765 38.8286 141.79 38.8642C141.803 38.8837 141.82 38.8994 141.838 38.9102C141.857 38.921 141.878 38.9266 141.899 38.9265Z" fill="#EA754B"/>
<path d="M121.457 22.1625C121.573 22.1611 121.685 22.1178 121.78 22.0381C121.874 21.9584 121.947 21.8461 121.988 21.7158L122.128 21.2656C122.406 20.3702 122.78 19.5227 123.241 18.7446C123.285 18.6705 123.316 18.5867 123.333 18.4981C123.349 18.4094 123.352 18.3176 123.339 18.2279C123.327 18.1381 123.3 18.0523 123.26 17.9752C123.22 17.8981 123.167 17.8312 123.106 17.7785C123.045 17.7257 122.975 17.6881 122.902 17.6677C122.828 17.6474 122.752 17.6447 122.678 17.6598C122.604 17.6749 122.533 17.7075 122.469 17.7558C122.405 17.8041 122.35 17.8671 122.306 17.9412C121.791 18.817 121.372 19.7705 121.062 20.7774L120.921 21.2275C120.889 21.3322 120.878 21.4448 120.889 21.5557C120.901 21.6665 120.934 21.7724 120.987 21.8643C121.04 21.9561 121.11 22.0312 121.192 22.0832C121.274 22.1351 121.365 22.1623 121.457 22.1625Z" fill="#FC8C60"/>
<path d="M125.641 14.8627C124.155 16.0441 122.94 17.6607 122.111 19.5618C121.472 21.0336 121.073 22.6577 120.305 24.0394C119.536 25.4211 118.246 26.5604 116.884 26.3353C115.034 26.034 114.051 23.4611 113.979 21.2102C113.85 17.2659 115.522 13.391 118.068 10.9115C120.614 8.43209 123.943 7.27202 127.212 7.31358" fill="#02263C"/>
<path d="M127.783 7.98887C126.722 6.99523 125.485 6.31053 124.169 5.98801C122.853 5.66549 121.494 5.71384 120.196 6.12929C121.839 6.6141 123.453 7.53869 124.52 9.12816" fill="#02263C"/>
<path d="M6.34952 28.8113H6.63678V118.199H6.34952V28.8113Z" fill="#99B0D1"/>
<path d="M8.03841 28.8113H8.32568V118.199H8.03841V28.8113Z" fill="#99B0D1"/>
</g>
<defs>
<clipPath id="clip0_24_35">
<rect width="259.533" height="245" fill="white" transform="matrix(-1 0 0 1 260.194 0)"/>
</clipPath>
</defs>
</svg>
